<mxfile host="drawio-plugin" modified="2021-03-25T04:55:52.155Z" agent="5.0 (Macintosh; Intel Mac OS X 10_15_5) AppleWebKit/537.36 (KHTML, like Gecko) Chrome/84.0.4147.105 Safari/537.36" etag="f7ILDvweDkgWKpqWxXU5" version="13.7.9" type="embed" pages="2"><diagram name="Page-1" id="5f0bae14-7c28-e335-631c-24af17079c00"><mxGraphModel dx="889" dy="750" grid="1" gridSize="10" guides="1" tooltips="1" connect="1" arrows="1" fold="1" page="1" pageScale="1" pageWidth="1100" pageHeight="850" background="#ffffff" math="0" shadow="1"><root><mxCell id="0"/><mxCell id="1" parent="0"/><mxCell id="6kyDpkckDrwDPFWgolJJ-7" value="&lt;b style=&quot;font-size: 13px;&quot;&gt;&lt;font style=&quot;font-size: 13px;&quot;&gt;RaspberryPi&lt;/font&gt;&lt;/b&gt;" style="whiteSpace=wrap;html=1;fillColor=#dae8fc;strokeColor=#6c8ebf;verticalAlign=top;fontSize=13;" parent="1" vertex="1"><mxGeometry x="160" y="450" width="370" height="180" as="geometry"/></mxCell><mxCell id="6kyDpkckDrwDPFWgolJJ-21" style="edgeStyle=orthogonalEdgeStyle;orthogonalLoop=1;jettySize=auto;html=1;entryX=0.55;entryY=0.95;entryDx=0;entryDy=0;entryPerimeter=0;startArrow=classic;startFill=1;strokeWidth=3;fontSize=12;strokeColor=#4D4D4D;" parent="1" source="6kyDpkckDrwDPFWgolJJ-8" target="6kyDpkckDrwDPFWgolJJ-9" edge="1"><mxGeometry relative="1" as="geometry"/></mxCell><mxCell id="6kyDpkckDrwDPFWgolJJ-8" value="&lt;b style=&quot;font-size: 13px;&quot;&gt;&lt;font style=&quot;font-size: 13px;&quot;&gt;Webアプリ(Nuxt.js)&lt;/font&gt;&lt;/b&gt;" style="whiteSpace=wrap;html=1;fillColor=#d5e8d4;strokeColor=#82b366;verticalAlign=top;fontSize=13;" parent="1" vertex="1"><mxGeometry x="560" y="450" width="240" height="180" as="geometry"/></mxCell><mxCell id="6kyDpkckDrwDPFWgolJJ-9" value="&lt;font style=&quot;font-size: 13px;&quot;&gt;SkyWay&lt;/font&gt;" style="ellipse;shape=cloud;whiteSpace=wrap;html=1;fillColor=#fff2cc;strokeColor=#d6b656;fontSize=13;" parent="1" vertex="1"><mxGeometry x="450" y="320" width="180" height="90" as="geometry"/></mxCell><mxCell id="6kyDpkckDrwDPFWgolJJ-19" style="edgeStyle=orthogonalEdgeStyle;orthogonalLoop=1;jettySize=auto;html=1;exitX=1;exitY=0.5;exitDx=0;exitDy=0;entryX=1;entryY=0.5;entryDx=0;entryDy=0;strokeColor=#000000;strokeWidth=3;fontSize=12;" parent="1" edge="1"><mxGeometry relative="1" as="geometry"><mxPoint x="445" y="512.5" as="sourcePoint"/><mxPoint x="445" y="512.5" as="targetPoint"/></mxGeometry></mxCell><mxCell id="6kyDpkckDrwDPFWgolJJ-20" style="edgeStyle=orthogonalEdgeStyle;orthogonalLoop=1;jettySize=auto;html=1;exitX=0.5;exitY=0;exitDx=0;exitDy=0;entryX=0.55;entryY=0.95;entryDx=0;entryDy=0;entryPerimeter=0;strokeWidth=3;startArrow=classic;startFill=1;fontSize=12;strokeColor=#4D4D4D;" parent="1" source="6kyDpkckDrwDPFWgolJJ-43" target="6kyDpkckDrwDPFWgolJJ-9" edge="1"><mxGeometry relative="1" as="geometry"><Array as="points"><mxPoint x="450" y="430"/><mxPoint x="549" y="430"/></Array></mxGeometry></mxCell><mxCell id="6kyDpkckDrwDPFWgolJJ-16" value="Gstreamer" style="edgeStyle=orthogonalEdgeStyle;orthogonalLoop=1;jettySize=auto;html=1;strokeWidth=3;startArrow=classic;startFill=1;endArrow=none;endFill=0;fontSize=12;exitX=0.75;exitY=1;exitDx=0;exitDy=0;strokeColor=#4D4D4D;entryX=0.5;entryY=0;entryDx=0;entryDy=0;entryPerimeter=0;" parent="1" source="6kyDpkckDrwDPFWgolJJ-14" target="6kyDpkckDrwDPFWgolJJ-15" edge="1"><mxGeometry relative="1" as="geometry"><Array as="points"><mxPoint x="260" y="650"/><mxPoint x="448" y="650"/></Array></mxGeometry></mxCell><mxCell id="6kyDpkckDrwDPFWgolJJ-17" value="REST API" style="edgeStyle=orthogonalEdgeStyle;orthogonalLoop=1;jettySize=auto;html=1;exitX=1;exitY=0.25;exitDx=0;exitDy=0;entryX=0;entryY=0.25;entryDx=0;entryDy=0;strokeWidth=3;fontSize=12;strokeColor=#4D4D4D;" parent="1" source="6kyDpkckDrwDPFWgolJJ-14" target="6kyDpkckDrwDPFWgolJJ-43" edge="1"><mxGeometry relative="1" as="geometry"/></mxCell><mxCell id="6kyDpkckDrwDPFWgolJJ-39" value="GPIO" style="edgeStyle=orthogonalEdgeStyle;orthogonalLoop=1;jettySize=auto;html=1;exitX=0.25;exitY=1;exitDx=0;exitDy=0;startArrow=none;startFill=0;endArrow=classic;endFill=1;strokeWidth=3;fontSize=12;strokeColor=#4D4D4D;" parent="1" source="6kyDpkckDrwDPFWgolJJ-14" target="6kyDpkckDrwDPFWgolJJ-37" edge="1"><mxGeometry relative="1" as="geometry"/></mxCell><mxCell id="gK50y9yELiW-DcGLSvpU-14" value="Serial" style="edgeStyle=orthogonalEdgeStyle;rounded=1;orthogonalLoop=1;jettySize=auto;html=1;exitX=0.5;exitY=1;exitDx=0;exitDy=0;entryX=0;entryY=0.5;entryDx=0;entryDy=0;startArrow=none;startFill=0;strokeColor=#4D4D4D;strokeWidth=3;fontSize=12;" parent="1" source="6kyDpkckDrwDPFWgolJJ-14" target="gK50y9yELiW-DcGLSvpU-10" edge="1"><mxGeometry relative="1" as="geometry"/></mxCell><mxCell id="6kyDpkckDrwDPFWgolJJ-14" value="Python" style="whiteSpace=wrap;html=1;fontSize=13;" parent="1" vertex="1"><mxGeometry x="170" y="495" width="120" height="60" as="geometry"/></mxCell><mxCell id="6kyDpkckDrwDPFWgolJJ-15" value="USBカメラ" style="shape=mxgraph.signs.tech.video_camera;html=1;pointerEvents=1;fillColor=#000000;strokeColor=none;verticalLabelPosition=bottom;verticalAlign=top;align=center;rotation=0;fontSize=12;" parent="1" vertex="1"><mxGeometry x="399" y="681" width="98" height="40" as="geometry"/></mxCell><mxCell id="6kyDpkckDrwDPFWgolJJ-35" value="Auth" style="edgeStyle=orthogonalEdgeStyle;orthogonalLoop=1;jettySize=auto;html=1;exitX=0.5;exitY=1;exitDx=0;exitDy=0;entryX=1;entryY=0.5;entryDx=0;entryDy=0;startArrow=none;startFill=0;strokeWidth=3;fontSize=12;strokeColor=#4D4D4D;" parent="1" source="6kyDpkckDrwDPFWgolJJ-26" target="6kyDpkckDrwDPFWgolJJ-34" edge="1"><mxGeometry relative="1" as="geometry"/></mxCell><mxCell id="6kyDpkckDrwDPFWgolJJ-36" value="FireStore" style="edgeStyle=orthogonalEdgeStyle;orthogonalLoop=1;jettySize=auto;html=1;exitX=0.75;exitY=1;exitDx=0;exitDy=0;startArrow=none;startFill=0;endArrow=classic;endFill=1;strokeWidth=3;entryX=1;entryY=0.58;entryDx=0;entryDy=0;entryPerimeter=0;fontSize=12;strokeColor=#4D4D4D;" parent="1" source="6kyDpkckDrwDPFWgolJJ-26" target="6kyDpkckDrwDPFWgolJJ-40" edge="1"><mxGeometry relative="1" as="geometry"/></mxCell><mxCell id="6kyDpkckDrwDPFWgolJJ-42" value="Hosting&lt;br style=&quot;font-size: 12px;&quot;&gt;(Deply)" style="edgeStyle=orthogonalEdgeStyle;orthogonalLoop=1;jettySize=auto;html=1;entryX=1;entryY=0.25;entryDx=0;entryDy=0;startArrow=classic;startFill=1;endArrow=none;endFill=0;strokeWidth=3;exitX=0.25;exitY=1;exitDx=0;exitDy=0;fontSize=12;strokeColor=#4D4D4D;" parent="1" source="6kyDpkckDrwDPFWgolJJ-26" target="6kyDpkckDrwDPFWgolJJ-8" edge="1"><mxGeometry relative="1" as="geometry"/></mxCell><mxCell id="6kyDpkckDrwDPFWgolJJ-26" value="" style="strokeColor=#dddddd;shadow=1;strokeWidth=1;absoluteArcSize=1;arcSize=2;fontSize=13;fontStyle=0" parent="1" vertex="1"><mxGeometry x="810" y="340" width="100" height="60" as="geometry"/></mxCell><mxCell id="6kyDpkckDrwDPFWgolJJ-27" value="Firebase" style="dashed=0;connectable=0;html=1;fillColor=#5184F3;strokeColor=none;shape=mxgraph.gcp2.firebase;part=1;labelPosition=right;verticalLabelPosition=middle;align=left;verticalAlign=middle;spacingLeft=5;fontColor=#999999;fontSize=12;" parent="6kyDpkckDrwDPFWgolJJ-26" vertex="1"><mxGeometry width="32.4" height="45" relative="1" as="geometry"><mxPoint x="5" y="7" as="offset"/></mxGeometry></mxCell><mxCell id="6kyDpkckDrwDPFWgolJJ-34" value="ログイン機能" style="whiteSpace=wrap;html=1;fontSize=13;" parent="1" vertex="1"><mxGeometry x="620" y="501.5" width="120" height="27.5" as="geometry"/></mxCell><mxCell id="6kyDpkckDrwDPFWgolJJ-37" value="LED" style="aspect=fixed;html=1;points=[];align=center;image;fontSize=12;image=img/lib/mscae/Application_Insights.svg;" parent="1" vertex="1"><mxGeometry x="170" y="659" width="32" height="50" as="geometry"/></mxCell><mxCell id="6kyDpkckDrwDPFWgolJJ-40" value="Skyway APIKwy" style="aspect=fixed;html=1;points=[];align=center;image;fontSize=12;image=img/lib/mscae/Key.svg;" parent="1" vertex="1"><mxGeometry x="664.5" y="542" width="31" height="50" as="geometry"/></mxCell><mxCell id="gK50y9yELiW-DcGLSvpU-15" value="Socket" style="edgeStyle=orthogonalEdgeStyle;rounded=1;orthogonalLoop=1;jettySize=auto;html=1;exitX=0;exitY=0.75;exitDx=0;exitDy=0;entryX=1;entryY=0.75;entryDx=0;entryDy=0;startArrow=none;startFill=0;strokeColor=#4D4D4D;strokeWidth=3;fontSize=12;" parent="1" source="6kyDpkckDrwDPFWgolJJ-43" target="6kyDpkckDrwDPFWgolJJ-14" edge="1"><mxGeometry relative="1" as="geometry"/></mxCell><mxCell id="6kyDpkckDrwDPFWgolJJ-43" value="WebRTC-gateway" style="label;whiteSpace=wrap;html=1;image=img/clipart/Gear_128x128.png;fontSize=13;" parent="1" vertex="1"><mxGeometry x="380" y="495" width="140" height="60" as="geometry"/></mxCell><mxCell id="6kyDpkckDrwDPFWgolJJ-50" value="ペット" style="verticalLabelPosition=bottom;html=1;verticalAlign=top;align=center;strokeColor=none;fillColor=#00BEF2;shape=mxgraph.azure.github_code;pointerEvents=1;fontSize=12;" parent="1" vertex="1"><mxGeometry x="525" y="680" width="50" height="50" as="geometry"/></mxCell><mxCell id="gK50y9yELiW-DcGLSvpU-2" value="" style="aspect=fixed;html=1;points=[];align=center;image;fontSize=12;image=img/lib/mscae/Stream_Analytics.svg;" parent="1" vertex="1"><mxGeometry x="640" y="530" width="50" height="39" as="geometry"/></mxCell><mxCell id="gK50y9yELiW-DcGLSvpU-5" value="" style="shape=image;verticalLabelPosition=bottom;labelBackgroundColor=#ffffff;verticalAlign=top;aspect=fixed;imageAspect=0;image=data:image/png,iVBORw0KGgoAAAANSUhEUgAAAgAAAAIACAMAAADDpiTIAAAAA3NCSVQICAjb4U/gAAAACXBIWXMAABOZAAATmQE42fsGAAAAGXRFWHRTb2Z0d2FyZQB3d3cuaW5rc2NhcGUub3Jnm+48GgAAAwBQTFRF////AAAAAAAAAAAAAAAAAAAAAAAAAAAAAAAAAAAAAAAAAAAAAAAAAAAAAAAAAAAAAAAAAAAAAAAAAAAAAAAAAAAAAAAAAAAAAAAAAAAAAAAAAAAAAAAAAAAAAAAAAAAAAAAAAAAAAAAAAAAAAAAAAAAAAAAAAAAAAAAAAAAAAAAAAAAAAAAAAAAAAAAAAAAAAAAAAAAAAAAAAAAAAAAAAAAAAAAAAAAAAAAAAAAAAAAAAAAAAAAAAAAAAAAAAAAAAAAAAAAAAAAAAAAAAAAAAAAAAAAAAAAAAAAAAAAAAAAAAAAAAAAAAAAAAAAAAAAAAAAAAAAAAAAAAAAAAAAAAAAAAAAAAAAAAAAAAAAAAAAAAAAAAAAAAAAAAAAAAAAAAAAAAAAAAAAAAAAAAAAAAAAAAAAAAAAAAAAAAAAAAAAAAAAAAAAAAAAAAAAAAAAAAAAAAAAAAAAAAAAAAAAAAAAAAAAAAAAAAAAAAAAAAAAAAAAAAAAAAAAAAAAAAAAAAAAAAAAAAAAAAAAAAAAAAAAAAAAAAAAAAAAAAAAAAAAAAAAAAAAAAAAAAAAAAAAAAAAAAAAAAAAAAAAAAAAAAAAAAAAAAAAAAAAAAAAAAAAAAAAAAAAAAAAAAAAAAAAAAAAAAAAAAAAAAAAAAAAAAAAAAAAAAAAAAAAAAAAAAAAAAAAAAAAAAAAAAAAAAAAAAAAAAAAAAAAAAAAAAAAAAAAAAAAAAAAAAAAAAAAAAAAAAAAAAAAAAAAAAAAAAAAAAAAAAAAAAAAAAAAAAAAAAAAAAAAAAAAAAAAAAAAAAAAAAAAAAAAAAAAAAAAAAAAAAAAAAAAAAAAAAAAAAAAAAAAAAAAAAAAAAAAAAAAAAAAAAAAAAAAAAAAAAAAAAAAAAAAAAAAAAAAAAAAAAAAAAAAAAAAAAAAAAAAAAAAAAAAAAAAAAAAAAAAAAAAAAAAAAAAAAAAAAAAAAAAAAAAAAAAAAAAAAAAAAAAAAAAAAAAAAAAAAAAAAAAAAAAAAAAACyO34QAAAP90Uk5TAAECAwQFBgcICQoLDA0ODxAREhMUFRYXGBkaGxwdHh8gISIjJCUmJygpKissLS4vMDEyMzQ1Njc4OTo7PD0+P0BBQkNERUZHSElKS0xNTk9QUVJTVFVWV1hZWltcXV5fYGFiY2RlZmdoaWprbG1ub3BxcnN0dXZ3eHl6e3x9fn+AgYKDhIWGh4iJiouMjY6PkJGSk5SVlpeYmZqbnJ2en6ChoqOkpaanqKmqq6ytrq+wsbKztLW2t7i5uru8vb6/wMHCw8TFxsfIycrLzM3Oz9DR0tPU1dbX2Nna29zd3t/g4eLj5OXm5+jp6uvs7e7v8PHy8/T19vf4+fr7/P3+6wjZNQAAHABJREFUeNrtnXdgFEUbxklCEkILCVUg9KaEDqIIoSqCNAGlNxFRhCBFQemIgFSVJkWwUKSDIFUEpCMd6b0HEkhCCYGU+T5LyF1mZtvtzu7dPr8/c3Mzs/M82dudmfeddOmAkYSM23b9adT5A78tmzNhcM/2jaqH5s+MUbENftOfEpoER0OUCcmCcfJUMm4kSki8e+HgluXfTRzSq0PjGv83hBdGzkNYQDTxzBDhHZuElS2QFYZwU14m+pB07+Kh31fMnTQUhnAvthNj+NcQ8yYP692pac1yBQNhCGvyAhFEUvSlw1tXwhBWYxIxiaToM3Pa5IYAJuMfRczkaR9IYC5tiMmszAYRzOR3sw1AVkAEEymWbLoBSB3IYB5jzdefHMP7gGn4RljAAKQAhDCL5lbQn9SEEGax3hIG6AIhTKJgkiUM8B6UMIkRlBZ/du33+ZSf1uw4fu2BOAO8CCXMwecapUU7h0+zF61Ut4UAQ0T6QwpzeIPS4l4GCbsYZYihUMIkVlNafKPm/qGTIc4EQglzyJtIiVHGlR8UbYaILA4lTGIQJcZeXZ8wFBliS34IYRJeFyk1uhr6yEkb4s7yxpgGNo1XKf3vC40F8AnKBBHMZAllgFkYFBuR8wllgCoYFRvRn9L/CAbFTpyhDNATg2Ijwij947A5z078RBngRwyKjQh6TBmgBkbFRoRT+p/GoNiJ45QB+mNQbMRLdIhOToyKjfiOMsASDIqNyPKQMsBrGBUb0Z3S/xJW5ezEAcoAgzEoNqICne8nH0bFRkynDLAGg2IjMsZSBmiCUbERXSj9b/hgVGzEbsoAozAoNqI0pX9yYYyKjfiKMsBmDIqN8L9LGeBtjIqNaEvH5vhhVGyDV5urlAEmWrGj3tDKCBoeYURnlbJaLwPD995Jvr07PAiC6Uv1HazovB1W62bzmP96FlMPmulI2bXs8MxOFuvnUIdDS7pBNr0ouoCTEjImwFodbezUu9ZQTheeY54K9A/TrNXT7M5vqWcxSa0DQWMf8RM0lLdWX7+2+A+UG5Lx02iJBB0HrNXZEmnvVOsgoGv49rglmaGlu7W6u4rKWwcJXZpOaXdBOkPPQ2sdB1iT6uBFiOgCjY7JpWj6zlL99aI3K16CipoJ2yWfo+tlS/W4A93B6dBRI+XXKcjR9peluhxAZy5FvIJGii1SdBRIb0t1ms5bR6KwUqmFvN8mKErSGB9spV7nZqQSDIeY6gkeF6cwS+dCS/V7FiONrC/kVEumQTGK0/TWtlLHQ+nMtaQZ9FSJX08VpwCds1RA4Aa6g9sgqMp5nw4X1eTpHmClvten+5dcCZKqoslxdYnay1io7z6MviNtlbrf0N1qM/V/a6Hed6O7FxcCUdVQ6IlaAyQ+b5nOZ2Y8uiBeSSVTVB/WYZ2g4FF05yKyQFKVEykPVTuglkW6nj8Oh8npwBeqDfCnRV4Ef6S7dhybwVST7Z5qB7S1RMcrMRYuXoee6hmg2gCXLXFm3za6YxuhpgYCbqp2gBUShDZlvKCEQk0tfKDaANHmLwj60kcX4PQarWN5XrUDJpne6V50px7kgZbaaKfaAE+KmP3oGkWQtlA3vI+pdsBik7s8ge7StQAoqZXG6g/vrWpqh4swZrA7Qkft7FJtAHPjw+njC8lBJC52gZrqbwFm7rupZuEJajdlvfoD3NOb19s9dHdWQ0OXaK/+FtDDtM62ojuTUAIaugA3EYQUd8xaefW/RHfmG4ioHYlEEJJ8YVJ/P2FMTWaHjFqRTAQhSVx+UzqcI8aaixPuiXQiCBnmmdLlqXRHLvpDSU3IJYKQIamcCX0uxQhgQ9paTcgmgpDFjPX3X+hu7IaWWmh0jLiM+Djs2pbPV+AmhO0iOnBUdHZe70PWW5hyRxQlglBCF8Ed78QIV8fJFWpRmAhCCdfFrsFmvE53YRwEVYfSRBDKGCS070PpDkQGQlI1KE8EoYz7uQR2/jlGFEtPaKoCNYkgFCIybfAcuvnT6aGqYlQlglBKQklh/S+bRHB6pQtvUOoSQShmlbAr2EQ3vhW6KkVtIgjl1BB0BQ0Y6UAqQlhl1NxNDGOfmN14Pifopn+AsoqouIEYSSshF/G+ZRak3Y0Si5MN1Z9cFJGZM8ttuuGREFee/LMSiNH0EXAdo+lmb2WGvHJkn/CYGM9d4w/rK8C4jnehrwyZh8QSIUww/FLm040ew0GhMvM+4beJIOILGXwtVZKRFF7tvE+ny0QcRmeQ/oNucj00lqLZCSKS5MqGXk1zRjqQ0hCZT+29RDDbjLwc33N0gzOhMpfKm4h4Ght4QR8xlqFzQ2cOJZcmm6A/OWlcir6gu2ZvRHEjQuYkEnN437BrmkQ3dhXpQJjkmBhPzCLCqHm5oox0IO2hNYMsw+4TEzFqZn4Z3dQBpAOh8f/oDjGVR3kNua7qjKbCIHdafLpcIWYzx4gL89pHN7QSelMzJSeJ+SQZkaq1Ld3O0+IQ3Jm6+4klWKf/pWVgTGh/DcWdqPIbsQr1dL+4gYx0IMHQ3IHnlxPrcFjvp/OcjPXsfhA9lQJzE4mV0Dtd53S6iQs4Gjr1/2NyPLEWVzPoe3tj2LsldE+Z9xnxgFiOgbpe4lq6gV0Q/r/H476RxILE5tDxGusxNh5UhfT/zPt0vUqsiY4pG72P0NUvgvZ/z461PE2sio6zNO+YsPnQLXj1ALEwy/W6zEyM06y+hPrpqv5OrE01nS50OF010oGke2ElsTo6pe3Ly0hh+6Hd5S/4fRKxPvq8qc+lKz5l83Qgub5+QtyBc746XGx5htUb2Vr+rJ8/IG5CuA6Xu4Wudout5336RxG3Icr1Z7VGjO0G5e0rf/pu14k7MdPVzA3pT9GVzrOt/F5vnyHuxu11nzcL0X7JPRhbDvPZVf/6B4mbcmf9qDcLaHreYexvHWFT+V/eRtybyA1fNC+o8qLH0tXczGRL+UNXE48gauPoFsqn8Qsytjl0taP8hX9MIh7E3U1jWirK7b6I/u5RG6YDyT3lCfE87m0e+5bM4fNVk0VsN7U6gaMeEo/l3m9fvl2Uu4F0J/2FX+0mf8And4mnE71lXKtiDBe0pIsmvmCzeZ/uN4hNiPl9fOviTi7wY5xlNsNe8z6tzxF7Ebt1QpsSKS7oS38u9FQK02lwmNiS2G0T25b0ShfMOMr0UxvJ/8ofxM7c376D/uOVDLaRv+waAija2UX+IvOToDbNfpukA8kz7SnEZlHDFvJnG/0IUjNZbgf5Mw68B6XZPC3m+fL7fnATQvOY7PnzPm3PQ2b+qoHHpwN546iHSxg1fY8Lp9X28XD5q+/w/H/iwenSl+0yVZsLznt2OpByv9rhLn73322BmlzQwpPlL7Yw2Qby7+rkmNc5fRlVLtjhwfLnnZHg+epHf8PKHelTprMyFyS/6LHyB42N83z5d3aUSOr+fxdMkXPBAo+d9/ks2vPl31BJfiD+dsFurgsi83qm/L4f3vJ8+ffUUjwePBckN/RI+b3bX3RnYVd/oaTUX03VDgvtguimHql/42Nu/UhfPV36s7KlLnXUuInfJ/SZC+JmF/ZE+cN2ubP8J5v9fQ2tZErd7uXa5I1PaOv+Pep75AxwhfXuLP+Nd/89F8zrkFSp2ME40ptD8Z/ded4n5tNnr3Sv80s9npAdQrPJN9Od533iJzoKu51TKmF2fgjNJnicO8/7JP3oHN5djT1tt6QEhGaTaVCMO//4ryub9oJ+YZTaWAlCs/HrFeHO8u9nzOiUoXYv760NoTnzPh0vubP8Z99iXtVPaeZ9mkFoDk3/cmf5Iz7gpOYs4riD/XInbwjNptYed5b//lB+Wp5pqfM+4TjDh0Olje4s/9NvckpcW57/ohhih2Deh0OJJe4875O8SCaNy2jM+0iSf3aiO//7b64od4HZ7pFEzPvwyD7hsTvLf+hVBdf4yZKSEJpN5iGx7iz/xbZe0NCVeZ/ed9xZ/kg81LuET+fL7iz/w8+zQEOX5v0GufO8X8KMPJDQZYpOcNdI72VYzdOHgN7uuPi3DWey6kfun9xN/mMNoZqu1DztTvJfwXKOFBlyFAp9qV6zFq9XL1/8uawKX5KzrHIb+e/284fITPxDWw5ZcDBN0u644yvHd68rfxCK1zD3WAuIG5sNSrN+xlvPPCU1nX9rSc9yMvfNxm4wIZg4Jx+0pghuOe2kktGLXttbcjmkpOWT/6x+AWpTU7lvrlKRsDF510cSHshvbQfsegVyp6XqNNUHNSTv6smdPw25YF35TzaF3Gkf93tofHmLncg7Fy3EqqHA1/8L9ALPyNTPhXSNiUteZtdawJIOiBkYAMGdCRzs6uHMO9kWKGi95aH4icEQPM2Tny6xO4uZIe2FbltL/qQfCkDwNLyq0+HM8eNY56aHWSoslA70sj35Fuu4oaYzo4Ge1pF/Xy3onYb0fR/oO7eSm25jnkXkP9sSelNP6bt131VHpzf1328F+W/xAr3sTCMjDuicTy2v5Dc/QPj+kEyQm7r9jzNmxe5yubQt1TD5PCDpQC+7EmJYzq6Hb6Zt60Mz5U9eWARq07wYaeCQD0nb2gLz9JcP9LIl9RUfz/7o+qn9W1Yt37j7+GXlOX5/TjPZGmRWflhFgV42pK2SX+Xo9ZPfr+O0ZSJb1Y6jliqa3d2b5lGwqSnyX2iDQC8mH8k+/j3a8Ell3p6fwl0Xyv9DHwg2/UfgDgK9OIyRGbnHixvJDV3FyXLvdodzOH0hu+h3wYcjEejFYZj0yP3xbqCit8iGi6TDwI87n3vfXKj8CPTi877kA/xyFQ/NucdJTiSfdHbAzwL1X4pALy4tJA7pTpyvcp9k8AipN4O9GRzL5hAWOb71RcjMpVY8f+A2aPi/yTpBYr13kVPRt8TIj0AvKcrzt+tf07haFvoHX4zhTiWXCpD/SkcEekkQxM3gkDBec8ozr078m3trx4K5Io2WH4FeMnBj9u7WcaXafAe4b5ROP8c9jJU/bgwCvWQmgHhDd6KoaxUHLOLVfN7xxuJ7zkD5EeglS5UnnLFbm9XlugfxJhdnOZZ62zj9Vz0PgWXIxtul/6Uez03NeHMCjR0fF/40SP6dCPSSh7P9M76DPtWX4awS3XbcjVHHEPkR6KWEBuzBu6lbepwcnON0VjsW2qC//Ne7ItBLARnYwbqndXxy8l3IVshxgqG83vvQohHopYwRzOG7V1zPNvzZ28wuOr6cz9dV/vgJCPRSRnHmFHCizhtmcl9lyvSpQ5FCT/STH4FeytnEHMFwvZup8Ii5K9txbfYr3fT/tQx0VfySxhzB2fo31JL5G/+d47OiTtmD9tWErMo5yNz64WtAS8OZ9+oKDiXG6SH/GQR6ufwKeMmQcAkv5prfUsfHER0Cvd5HoJcqdjIG8YFBv6AZD7NuAY6LDVsR6CWYmnJv57oSwsoYPt2hQBuX5H/yNQK99HgFWG1cc6xdh3EOqvm7kJAGgV4aqMwSpJDCuZ2a7T+etGjb7uVTB3VtoPCcNO99MpuDJmnWf1MFyKmemYyRHKTki1lbL77vNG+0tXdBRbMBjDyzUQ4zts9rlP9gPYipgQyMnbtnFATNNNzAmrQ71FvBrquvGV98S+ahFIFeRsHajfu27Lde5D6rX2ovK0QwY3PACofPO2oI9OrlCym1sZZxA5DbAlJsiWTY12tybY5nrNs4bDsKUJuYDoFe2snF2LjfWeY73eSih+fJ/ITkYYSNdXL4fKW6QK/pCPTSDmMn6GXpu2n6b+Q12ZVLutVpjLgTh497qwr0Kg4VXWAvPaI9Jb8QtFlRBEY5yUoK0i8CCQ5TAWUR6CWKQFqJOMlNwAUV7t1+WF+y3fX0Nxw2H3opnQs62gASukYTelAXSpXPdFTxlHyoVD1tpBeFlytq4jICvVyGsf9C6l/Xa4Xym/PFHBIVBdyng0QcPu6lJNCrLwK9XOcYNa43pDbRjlTzdLZd6mFyLl3e4YCZUAWBXoFQz3Vy0jt0xksUb6nu9XyWRFWMEIB2DncamUDRxNkI9NIFRjBWXX7pzGoz+dTg1+X7UNIvuxDoZdIjwBOJffQj1E7Q7lX1HnDa4VOpqcad1SCcXtCRONv5hZ97qNYATks8afiYvq87zB9O5lZ5oglk0w86I8QIfuFZ6tdozvOfAyvRpR1u7P0R6CWCAPoZsBa3cPFEDYu0PbjVedNbw5pJzhP8Heg1AIFeusKYcuW/XA3Rskq/i984vaA8IPXDMAR6iYDeC3CTX1hT8H4Sf1WI3ok0N/XD0nRN3yPQS3cGU8P8O7dsPm2Bu+9wK+xLP96nflgZgV4imCe5P9uZD7Rt1ONvL36DDuhI/bBWmvdJBHoZwgoV8aAaczfEZeQ+VNJlOe440wJSGcNmyZQ9zmg9Qqoydy6QLuvDmqJEoJdx0LtBuLfaDFr36vMtRe8LS03k9yx65P5gBHoZxwlKAm428MJaDfAet3U6g2jIs89mpAR65YBKBkJn7ODur6uu1QDDuK1foMq+4HxvSl5QGBoZCh0Twt1fqzmJ47fc1o9QZZ+lJPOJQ6CXCOgt4dyc0L21GmAlt/Wd/KXo+gj0EkIcJUEQr2g3rQbgbzGkg0TDUj5afKE1Ar0EcJuSgDvd2lCrASZwWz9JlU255/u9h0AvIdDZIUvzipbXaoB+3NavUWWLQRKx0OlaXuIVzanVAG25rdMRgLkhiVjo41y4qSG9tGZwrM1tnT6fKiMkEcuvlARtuGW1nubAzdkSRO8JgyKC+VkyVYszU7Tpf45bYVWqbAwUEQydqmMxt2w9vV8COtB5CaCIYOhjmo5yy/rGaDIAPzRgFFX2FygimLqUBo/54ZYLtegfyd/Eu1RVUBIwgny0YvwDwlppMcA8fuPHqcJdoYho6GxNHbll/S5q2BNalltdMP0WWB2CiOagmn/Z1uoN8D2/NsaB8UjyKhz6d/0yv7DXftUbAvPza5tKlb4HPYQzkBatEL90TbUGGCPRNL0UtA16CKeqmo38EocLs7ktkcMhr5q9Q8AofOgDWtZJFM9xSY3+T6U28/dSlU0AGMUaekJeKutiWTUR4t2lGqafJx75QQ7x9KF16y9VvrnyALGpUvWUostvhBomUI4W4rjkF4Yr1X+LZDjHF0QqNhgIg5WNqaLkNwYruweszCxVifcV+htVoIYZ/EgrsUD6G03uK9B/lPSeTkaO+ltI/WEKjFXeRJmteaXPy04AtZJp9TB/3bhyHYgiEm96ayaZI/Od4EXSPwOHKspU0IjxpZRVg46P4AChjGG8wMvm4qiyTSKDr/yRIYwU5UdSPhtG4AChsI5omiH/tcYn2fJH95fP4Fuf8b0+KR8uI3CAWBi5fxLLy3/Np/7062m/92BZBwUZfP1O0y0mpOwI/2fjERwgkp6s5F6KArO8Ko/ccyMleVzUsZkNlaXv/ozR4NqUD2v/OysIB4gjC+ss1y6Kv+6Tt0rTt14prDx1e6E4IpGheAKBA0TDmty7k82w5n6RTCqc8vMAB4iDdYwfWWVUdG4PyTwyRVPXhuAAYYxjaTLamLbqMI6pI0efuS3cYTYJDhAF6xg/qahOFyjGTDaWOnG4kcABJjCVpcpjAw5kC2TOHpx9FoyQJZ7AASaQl7m+c1P3Y1l81smcKhCeZk0BDhBEH6YwB/ROzj6J2UzqmaE+aUMP4ABB+BxhSrNY31beYTYSn7r4SB9KBQcIohp7fW+onm1UZ+eYGJ5aYg+BA8xiDnttZ6R+0wENYtmnymRIdSFzbwEcIITsnON6l+mVtqVvEruB11OLsMMO4AAx8A6FPByiR+1+cznVO2w+4QUewQFimMYZ/4iXXa875w5O5ccD5B5E4QBR+B/ijH98R1erLnuZU/VDh5PiJI4kgQOEUIy73Xeca8e0N3vAq9jBWkFRBA4wGX4OkDUuhO6nH5qsJH+IdBYyOMDUxwBC7nXXehOocZxb6TGHN4xQmWMp4+pCHuPxkYj/3ldJ09Pf9/wd5Fcc1hp8dsrGGsABAsiwQyLfzyzV53dk/vgev76okg4lRypINwIHCCDbMQkJEn4oqaquoVInjT10XG2ulUTgAGuQ97Jk1q/F1ZRWVGhMrGT2CIcZwHQ5ritLOQQHCKDEbZnkv8OKyFcS2O0P6eixpHaOxdcoTToFBwiguGwemJ39ykutERXovOSxTA3xTmeBKj+PCA4QwXNH5ZWIWvZBOcZ2EZ+irWYqyCsf63SIQAUVRxHAASII3K5IjOTLm6aEt29ap0qp4hXC3mjdfezKk8qkjHCKPAs8qyr1IBwg4m1wJTGQ804PERm2q/s2HCBkRugr4/Tf4XQykPcK1elH4QARNI8xRv7k0c7Jo75VXwUcIIQiB4zQ/05951aGaakEDhCC3xT99d+e17mN7tqqgQPE0OK2vvI/GZ4mE9ibSQQOsDLZpibqqP/mtCsJYY811wUHCKLCbr3kv0GljqvqynMmHCAIr3ci9ZA/YWKWtDU3euRSjXCAsN+BEdGuyp84vxRVbTdXf13gAGFkHRTlilJP5zCOIhvh+l0FDhBHpv4RWmV6PJWRdjL9d3r8rsABAgnovEXLO9tfA1jnT2T6VZ8HSzhAKPkH/KVOn4hJFZgV5dyv16sFHCD6rXDiCcWvfT+8zkkAX+a8fnMLcIBw8rSZfUF+u0iPUtz3yt7xes4uwgFmULDT+F/OJDAX+679Nq2n1IaxPBt0Xl6AA8zCt2TTj7+c/tOqLftPnT20fe2iWRMHt66QSeZLTSKJ3sTVgxbuQsZviQHAAe5CxVPGbDKBA9yCXDMSCYEDbDuR9Nl9YhxwgMXx6nCVGAocYGlqHSRGAwdYFr92+4gA4ABrkmfYLSIGOMCC//z15j8hwoADrEVI91UPiFDgAMvgW+vL40Q8cIAF8A57Z/SqWGIOcIAFGEhMBA6AAyAAHADgAAAHADgAwAEADgBwAIADABwA4ABgIwe8CgHgAAAHADgA2NUBj+EAOADAAQAOAHAAgAMAHADgAAAHADgAwAEADgBwAIADABwA4AAABwA4AMABAA4AcACAA4BnOuA1CAAHADgAwAEADgBwAIADABwA4AAABwA4AMABAA4AcACAAwAcAOAAAAcAOADAAQAOAHAAgAMAHADgAOBhDqgPAeAAAAcAOADAAQAOAHAAgAMAHADgAAAHADgAwAEADgBwAIADABwA4AAABwA4AMABAA4AcACAAwAcAHSjdMS/JJvpgIQIbeSEfi5TnrgxeaAfDABgAAADABgAwAAABgAwAIABAAwAYAAAAwAYAMAAQLEBVlm7t3thABgABoABYAAYAAaAAWAAGAD6wQAABgAwAIABAAwAYAAAAwAYAMAAAAYAMACAAQAMAGAAAAMAGADAAAAGADAAgAEADABgABgABoABYAAYAAaAAWAAGAAGgAFgABgABoABYAAYAAaAAWAAGAAGgAFgABgABoABYAAYAAaAAWAAGAAGgAFgABgABoABYAAYAAaAAWAAzzJAfISleQoDGGwAnBkEA8AAMAAMAAPAADAADAADwAAwAAwAA8AAMAAMAAPAADAADAADwAAwAAwAA8AAkvwPqIUJhvJsUK8AAAAASUVORK5CYII=;" parent="1" vertex="1"><mxGeometry x="330" y="680" width="122" height="122" as="geometry"/></mxCell><mxCell id="gK50y9yELiW-DcGLSvpU-10" value="C" style="whiteSpace=wrap;html=1;fontSize=13;" parent="1" vertex="1"><mxGeometry x="300" y="759.65" width="60" height="60" as="geometry"/></mxCell><mxCell id="gK50y9yELiW-DcGLSvpU-3" value="" style="shape=image;verticalLabelPosition=bottom;verticalAlign=top;imageAspect=0;aspect=fixed;image=data:image/png,iVBORw0KGgoAAAANSUhEUgAAAOEAAADhCAMAAAAJbSJIAAABIFBMVEXQEBL///8AAAD27DbREBLGDxHOAA/38Df49Tj/9jj48zf57zf88jf59zj/9zmtra3svy7s7Oz39/fm5ubV1dXGxsbOzs68vLzZEROHh4dNTU1mZmafn5/v7+/c3NyYmJjmpSn15jX04TTYzy9DQ0Ozs7NcXFwkJCQ3Nzd0dHTdcyDjlSbZWBzbah/fgCLuxy8TExMyMjLIwCzTKxXWSBnUOBfy2jPqsyygmiM2NAyupybw0jHl3DLDuytxcXGQiiAbGxvorivjkiamDQ4gHwd/ehxhXRVKRxB0bxnZXRxaBwiDCguzDg+alCJaVxQVFAUqAwQrKQlHRBAxLwuiDA5vCQqNCww+BQUeAwPnEhR4CQqJgx5MBgY9Og0YGAV4cxrTH9+dAAASGklEQVR4nO1c+V/byA6HhPrIQcIVEs4cEAoJCeUKhdAUWmhpC+xu9+bt7v//Xzx7Do9saezh7Xuf93HX+qUllsf6jjSSRh5rKvet09T/W4D/Of0zEH558c2SQPhi5lslhXDq26QMYfopQ5h+yhCmnzKE6acMYfopQ5h+yhCmnzKE6acMYfopQ5h+yhCmnzKE6acMYfopQ5h+yhCmnzKE6acMYfopQ5h+yhCmnzKE6acMYfopQ5h+yhCmnzKE6acMYfopQ5h+yhCmnzKEf4usMBnzPm94neAz9bp/6T9BGAysF2iGXTi52xtc95o+9a4H/SmaWfD29wc+7e33T5JwiuvH/f5dv398RLLP1H/8/fMXD+OzEXpj3fWqp3bZI6fcOq327qLDe38f7TWHrbJT8Mjm5P2v3Bpen+h5GXfB+8cbdng1ONGAFHe0nbLD7nDKFHv9Xe67n35iHzs9D6Fl7Vdtx5M6L8gT3bFHfTC6ZR03T8uABZDHfDpQvJ5QfZrXG7bcGu0jE/Tu2L9q+wLYEXanfQWkmHmXe/dbvV7/2cP1HISWNWg7hOS2MzyyApbTMolOULGQ73FJPF00W04Mr+20mkcQo2fLzTwlgGBvX0uM9dy7Lx6oT/XPv9SfgdC6axc0w9t232IiXBd1LIoKrX3LV3VVKyyQ+mpKKsa/oxx/R8Hmszfz7tf6l9xvHs567oUxQssaqfGLJUbFohr82JN6v1VQjyv6TK7rMp6S67PLS+WRdQLxSVZG4XFtWyjGOgrNiJAAidG687jrn3/yEH7+Pfei/ss7U4TWSbsgx55tHZ7fTyaTs/PDvCvktlveFDjq+W6pc3n/8eH1Y47T+4en8/GsBFloB9bpieqOFev7P25v7i8VZz7vXEz5Kr8ugDt8CSY3tz79NTk/9NhLSuvWzMzPnzyEP3sqrH9nitDq2/yRRbfz9H1O0ev7MR/cvjoNpqDUmXzIEfT41HHVfHPdjs9vKdaPl3kJ0s4fW0cXDrjjI2Y/b8mRCxeW9SXnW+mPuZmp3JQZQqtfEPgOf0CjP3ErEVopuuPJI+IJ6MMhwFjKn5MzIaSW02Hbg7xQYKmoveNWjmy3p+rffX7xqV7/9O7TJzNPYx3zB5RaD9TY34+V0O6YVAmUpFWS+CYJrA/CPvIFozs+dFwB0XqR+90LFlOffjWLh9YUn8LSoWbog2D95W8ShPbp0Je7WLw3YL0vBXPnWf9ZEvsTt2z7wnrxr9x3v+Z+MvwO2LpgAN1z7cgPs1yBuimI0GXJY40xZUAf8tI+Sp2vyex/tBh7oWnVX7z7MmWYtVm9QgJATy3+wLN4jre6b3YbHr1ZCf3cmX0ywufR91xmanCKHvmKce4s/zvuKaPM2zphbqx0Ccbpri0v1ZYq3eCHW8+a3JCF7jSWF6YhLVS2lNjh9bzTqNTmJN9crbL7FkLkFhpe3iuN5cW5eZ99fqFWWYUQmdK94CXEN0HIbLQ4VvJsB1LPvZQ/enYH1dLYmCZocSuHaauyjjkXNhXDg+sJDV346hLirymQP7ClW+hZpgitAVOh+1qOsBka+kD8OnaBFW0iCSQBwTntLuhYKwHPWan4Wt3RmCfZF4J1wL2TbY6QL/PA8UXmb1v83OkEIqwQOtFA7M7FsM4HMgMNrtL4fFqTPGwpSiUmIrSahZCNRg1kTvx+GbjGRozQHr0CALG1hUma3qPZHcuC6ZaFxZYZQuuI+1G5ztfQsOJCkMlVEqTeDqTd0qtDUrDMOe3EWce00iJTorNvGSGsMjcj49wKHjUsQ24bc4RpIbC3RHzKQji9TOQXdv3kr0R7ZILQOimzWPSHeAaew/kwQL2PkbQuOHcNAE5P7z4LYDB9JWWmSQiHNgyFhPwbIYAGehFCvDECOL2oxj5INupg5XZ8My0fW4kIrWMe7N/z+94SQ1YgwAMDGWo6c6dJDa4NK3h0HjAKAwOEXIUyXVsmhoTpRG7RQIZN06ngFLjexAXOiTM/sIXYTEQoVfgYsw4gwIQ4AW4w0gcjmRh2n8fv7wTsajLCsAopDS1ChCYSMKtOiigEQpNF6JPIKFp+BLhIQmgdM0daEs8gl04DADSxo7lnLcLpICLiOKwhEW59V+NthJMQVkMqJHNpAPCVwfN5fKNStfVKo7FGKIqPTa7bhaUavmGJ38B2c60EhHLX9GfMQqgBhEkp2LScYCpm7mrsXERPwsdt7JAPFcvmku0SkxCOklUIAnKyCpdfaper9JjIAy3pxhZxGAWwDXOEM1M8I/0aswqhkcapcH4O7FKJ5Rqkn+hKQze23LVF7RQiTLBSsamQ6QwZ6kC4J6Z5PnewswN364x2MGNgCXglHGhuCTxcFGFNIUzyNHxfOCuqk1sUQJj6EysF5pRxjCriIPVyeXFwWQ9uiV4BnsY+jUVoDZgK5b6WtEGQkxLObiFHEaEPtWNEy3CLRAFUiLQOo8UwHmHbBvtC2o0AJRHxKpTPxahwWV2MmhwXF6dKakOD/LKI+ONg+6RDaN05cGtPBnO4ccJXaRUSyfuOujpHDoHDpyqF1KKX3vDf3cS8VER7WUSnAKq6CJmR0qsQL6kl7VUBMHbXjS5x1/DVR1i4jkEoon1RZwuR5xCZdGRnrJVoOlRghEFXOmrsAlQhBKPnv9+y3dNeHMJmKNqTaS9YP8Q0o7KhZqoWIwyiijBXCcIMHlu5cLT8hd4nPkInbgcsQoWI9nTBAYQKwtN2G5uV5eXl7bVQ/RpXQZA/2lnd3e0eqL/xAgCTghItYfMs4Ds8cyERWnuhUEHXr4FU5AwEtBGgwEWO9VwS4QWgVjiOUcJ0OkHSpkPIN4biVSsd7dU7i+Sdr/RJODGijRkQse2Oe7AotrEt/qkeofAzeTEOVbwIBYPkHTufDiLag1F2uv5bqtVIiRQ7X5AqolghixhuQjXR6jEVyhcRpMwgGBhU+fjywGlBECo2gXqXoXvFTg5MAbomsizmaHiw0CBswXcxpA3C9WNQk+BPxn5GmHrUxapwgFcuSBWxBxT65Y6mr0Uo8hnpZ0gbhNULgxIKEwvHFDFPeHkGusUrBDwZG6nwaS3w8olEyLe+4n0nuTGE8dykCsZiJ079uAeisnq5CPAV8GTdxT/YMhzGILRhAYpMSaELNClANWhds1BJVr/ndEYKkjxtpOTLUP92zdpz4NaXlBgANKrz0brWrU6fXmmM9I16MDZuYcGsDMUzGhohS7pd8aadzGdAzm1kpEu0rhtaFUozxb+rB+u3KfyEiv4dMDfSlnaipsMqNKnuvqJ1xe7H7oIRWwfYB4BkGOe4IkbfgndrFEJupEHSTT099DYm4aWlT0zlODOq6VeBQIhnD6Sx2McL0zpnafeeHmHISMl9E8iLTerANc1IzEiJPEchxCDUg4lcUpRDYKwgERahkVLBUMVj3RSESBgWTt9jZ8iHjxNrYKR4WQsjfYCxgkBo7ReAkZLPB2UH7TIKaF06P3RFuHaNK/azHezlgJHiWzaBkfJ3hzTCqyQjBfNIPqhSqUnNb2wHOxAc2YRr12xM/Es4VqjnEj4+B4y0EDhOjLANtxWUkcLjIvoiysFOSNWE05DX9XkvKkGBcI99vKgFs6Mm/NUhiZAfTZDhnnIDsHJEKTl8PSC0DMExi+gJODEKXoYqJyUkExbMs+49PUJWCC79pZ/e8P4NL0O6xoatOeSv0IN8LDgXUDdgk5CpcujIF4WQVxEfdaYQep+Wo/wEDRD79tBMoAf5S0FXZiInTAbDm1C4pxC24MYJjzMdPieKjSUyA1olhYIqehBbhsg+VKZB+BkxHqvQOHdahPxsgowVxOmYSPEPG1IjRxKKXqF6KtIWw4LsQ8UK7AHF8mel4HwbfAIVRciXoXhbQaSc3VwuVrSwahQhMwzpGmFZoRSrFgCR7YvKxxkz0l4MwhFchnimoi8j0OaVfltBZK/Q0aB5os8zKO+L/YOsbbBQ55zEIDy1wfsYPFPR+i2aA75UtlZ3G43dN6CihEYC2TuuZLHsBK21QO2ECoVtcT8zBAARQhtEQ7wM51fXtmuLi7Xtxo5G8G53DR6QWBQ5G97LAR1qtlUo1AbJlN62OuDYJYlQOJqJxngg1XZoLUdpQ6MmZc5YXo4eOSfp5YhUUtgW/yiiBQFGEe5BR5NwSm1Lv/WBxJwmsdURdrVCZN7cW+Gs9EBjWsF0sfKFqJNqELIvK1xxFDGhADNveLipQiOcbrwlT90HSxRfWiDzgOlgtliNDeYzBEK2sZBVtiTRVw2Pb5FWGs/vE7UvWydPvkvzZSlpoRmLsApcaaL4a4YIX9EnU3XUiEFI01ZIhZEDCRGEF0WVsyWe4jVFuGXkkiQFVXvyhRBF0i0fUiqMImThUBxbT3xn1jA8CPuSdJg6Cl6omh7RlPnfh1liFSKEbRAOEyswK4aqIV2/jlTF1+g87rTKQjrwO5L/DkLDtbJuZPKCQKpDv5hFJG30xsWx8G9a6ZLhPG8bOWZOoXzc6I4gc+AZ6V4SQuZphC9N+rKgayjFS/NVFd6bGVm23Mtcsoz0AjeaIKKFYTzcMBRcbNxMnFJk82ly6FjWVD7Ook0FjZAdo3HFFzLxWZsYO/HNk5TXuHSsvqFKjhey4vBefhuLANJ5qfhUMvatkiyzJIVEVfVI+hhDVQeCj/GS8sagKsY+5bLbBMAowqNy4pHLqDjx3y/Bsk7ct4bT62oz2Qm+QopP9tQbfbYIgzeGcQi5M8273yfJBHfCMR5pI3xCmDx5xAm8kTwsqQ9W4yKGuuWeBQoHhUISYQ++tdDFu3BdP7ejkXwelU51O85lUN3plIAV6SNuTZXUJzyZGZIAEcIj/gVC8OX7LtqAz1fC5Xqf3hBJ2SJVGn5FGP76GqxedZjBga+mu9T6hUduJjzhbmkaRtEVYTCHue62En9uaTNcLw1oZRta9NxyA0r9BL7kf7sZ0vjGWmhA0TDAgwi6X7zaDIGcWw7N3RlvdmATgYJGyD+pjPRneLWy0l1BX5p/HIf/7jY21zY3G6tRxsmsG24QsbW7uVaprDXeRE545W5Uzxb49bY/Md3dxqZ/KCw6+CFvhSGOBxkgFB8hhD+up2nilsbvE7k8R+fJ4Jo0RPhTSMsR5nETFUw/iNYgRLamRSiOsCfK9OiLU8wnNTKR7UkMOmZMgl4+opFKchORM9GvpawHSCE85q1S4ltz3AtxZuOaZeRyry9nhd2V8rhtDqQb2dOlMLSajpAg3kRu8qL3T+FOD5A8bbJf5naiba/y/iwfNFUp5fVNWB5gt5282yGb2zC6l/jy5aY1I9sxFUvnf2pvmcjeNX4LIj1A+tTXoCylP8eL4eukUwJNY1jbH0r0h7OxxBd0H+qQhvfXoerylGfqsJpSgtKlpsdS0FercDEVB1Bz+nK/IG3LbV1ObrlbO/j6cHN22FI9qmzZ2Kvo5i+fAMofPp4dFt2AzxlWRZOnYsnt3N8Cvbz+eNZRjLYzEg3XrIHs61UslQ7vb1VnqscPN+ehW3oJfRY1p6CDxl68F5c3YrHkhhqSefh6oHmZfzk/7nQ643HeZwT9xfKDSKMun/HQo864CDnt8oVy+dbxaUiCYosN3goP7t2iC4MJCKcsb7XHNn+zy1W/I+NVmKtYBK3TOD5vR2P5udIQNpMrcgoPeLoPtWFZA7sAGdAdfpO9veRGmfrvno5GBW2HPad4xVs8xnGxtoDShiyrP9Q3zLMLzvAuKqxl9Vox0+xNiQG+2K/zrKNeuxwV3+/BWKzuBY0mGZdDgPT48qO7cMfIqzzRJtEf8fT6iBLWsvaqdsEuEoOXW1fHZo1OY7909oTqDfPlQkCO0672+uE+mjOMyy4HfTxFI88oH28M6re6DBh91nJ7NDjSdiv1e102LwplJzR4ftg7Nm7kmtQXwx+ovze49miwJ3qnklwne9fNUXU4rI6ueoM7TTNW9nN/4DNeXAyrHmd/JqnpLBt8f9C7Go2qo1HTG/zoGX1qzXrQGvW/NW+o+4zWu/Qtz+sHnHVKTj9lCNNPGcL0U4Yw/ZQhTD9lCNNPGcL0U4Yw/ZQhTD9lCNNPGcL0U4Yw/ZQhTD9lCNNPGcL0U4Yw/ZQhTD9lCNNPGcL0U4Yw/ZQhTD9lCNNPGcL0U4Yw/ZQhTD9lCNNPGcL0U4Yw/ZQhTD/9oxB+qxQg/HZJIPy2KUOYfvo3LmzyM+NeWZYAAAAASUVORK5CYII=" parent="1" vertex="1"><mxGeometry x="419.9978260869565" y="759.9978260869565" width="59.652173913043484" height="59.652173913043484" as="geometry"/></mxCell></root></mxGraphModel></diagram><diagram name="Page-1のコピー" id="ij7C5L0LvV9pyrtRQWQj"><mxGraphModel dx="889" dy="750" grid="1" gridSize="10" guides="1" tooltips="1" connect="1" arrows="1" fold="1" page="1" pageScale="1" pageWidth="1100" pageHeight="850" background="#ffffff" math="0" shadow="1"><root><mxCell id="4on1alV3N8Ete7iTEEkb-0"/><mxCell id="4on1alV3N8Ete7iTEEkb-1" parent="4on1alV3N8Ete7iTEEkb-0"/><mxCell id="4on1alV3N8Ete7iTEEkb-2" value="&lt;b style=&quot;font-size: 13px;&quot;&gt;&lt;font style=&quot;font-size: 13px;&quot;&gt;RaspberryPi&lt;/font&gt;&lt;/b&gt;" style="whiteSpace=wrap;html=1;fillColor=#dae8fc;strokeColor=#6c8ebf;verticalAlign=top;fontSize=13;" parent="4on1alV3N8Ete7iTEEkb-1" vertex="1"><mxGeometry x="160" y="450" width="370" height="180" as="geometry"/></mxCell><mxCell id="4on1alV3N8Ete7iTEEkb-3" style="edgeStyle=orthogonalEdgeStyle;orthogonalLoop=1;jettySize=auto;html=1;entryX=0.55;entryY=0.95;entryDx=0;entryDy=0;entryPerimeter=0;startArrow=classic;startFill=1;strokeWidth=3;fontSize=12;strokeColor=#4D4D4D;" parent="4on1alV3N8Ete7iTEEkb-1" source="4on1alV3N8Ete7iTEEkb-4" target="4on1alV3N8Ete7iTEEkb-5" edge="1"><mxGeometry relative="1" as="geometry"/></mxCell><mxCell id="4on1alV3N8Ete7iTEEkb-4" value="&lt;b style=&quot;font-size: 13px;&quot;&gt;&lt;font style=&quot;font-size: 13px;&quot;&gt;Webアプリ(Nuxt.js)&lt;/font&gt;&lt;/b&gt;" style="whiteSpace=wrap;html=1;fillColor=#d5e8d4;strokeColor=#82b366;verticalAlign=top;fontSize=13;" parent="4on1alV3N8Ete7iTEEkb-1" vertex="1"><mxGeometry x="560" y="450" width="240" height="180" as="geometry"/></mxCell><mxCell id="4on1alV3N8Ete7iTEEkb-5" value="&lt;font style=&quot;font-size: 13px;&quot;&gt;SkyWay&lt;/font&gt;" style="ellipse;shape=cloud;whiteSpace=wrap;html=1;fillColor=#fff2cc;strokeColor=#d6b656;fontSize=13;" parent="4on1alV3N8Ete7iTEEkb-1" vertex="1"><mxGeometry x="450" y="320" width="180" height="90" as="geometry"/></mxCell><mxCell id="4on1alV3N8Ete7iTEEkb-6" style="edgeStyle=orthogonalEdgeStyle;orthogonalLoop=1;jettySize=auto;html=1;exitX=1;exitY=0.5;exitDx=0;exitDy=0;entryX=1;entryY=0.5;entryDx=0;entryDy=0;strokeColor=#000000;strokeWidth=3;fontSize=12;" parent="4on1alV3N8Ete7iTEEkb-1" edge="1"><mxGeometry relative="1" as="geometry"><mxPoint x="445" y="512.5" as="sourcePoint"/><mxPoint x="445" y="512.5" as="targetPoint"/></mxGeometry></mxCell><mxCell id="4on1alV3N8Ete7iTEEkb-7" style="edgeStyle=orthogonalEdgeStyle;orthogonalLoop=1;jettySize=auto;html=1;exitX=0.5;exitY=0;exitDx=0;exitDy=0;entryX=0.55;entryY=0.95;entryDx=0;entryDy=0;entryPerimeter=0;strokeWidth=3;startArrow=classic;startFill=1;fontSize=12;strokeColor=#4D4D4D;" parent="4on1alV3N8Ete7iTEEkb-1" source="4on1alV3N8Ete7iTEEkb-23" target="4on1alV3N8Ete7iTEEkb-5" edge="1"><mxGeometry relative="1" as="geometry"><Array as="points"><mxPoint x="450" y="430"/><mxPoint x="549" y="430"/></Array></mxGeometry></mxCell><mxCell id="4on1alV3N8Ete7iTEEkb-8" value="Gstreamer" style="edgeStyle=orthogonalEdgeStyle;orthogonalLoop=1;jettySize=auto;html=1;strokeWidth=3;startArrow=classic;startFill=1;endArrow=none;endFill=0;fontSize=12;exitX=0.75;exitY=1;exitDx=0;exitDy=0;strokeColor=#4D4D4D;entryX=0.5;entryY=0;entryDx=0;entryDy=0;entryPerimeter=0;" parent="4on1alV3N8Ete7iTEEkb-1" source="4on1alV3N8Ete7iTEEkb-12" target="4on1alV3N8Ete7iTEEkb-13" edge="1"><mxGeometry relative="1" as="geometry"><Array as="points"><mxPoint x="260" y="650"/><mxPoint x="448" y="650"/></Array></mxGeometry></mxCell><mxCell id="4on1alV3N8Ete7iTEEkb-9" value="REST API" style="edgeStyle=orthogonalEdgeStyle;orthogonalLoop=1;jettySize=auto;html=1;exitX=1;exitY=0.25;exitDx=0;exitDy=0;entryX=0;entryY=0.25;entryDx=0;entryDy=0;strokeWidth=3;fontSize=12;strokeColor=#4D4D4D;" parent="4on1alV3N8Ete7iTEEkb-1" source="4on1alV3N8Ete7iTEEkb-12" target="4on1alV3N8Ete7iTEEkb-23" edge="1"><mxGeometry relative="1" as="geometry"/></mxCell><mxCell id="4on1alV3N8Ete7iTEEkb-10" value="GPIO" style="edgeStyle=orthogonalEdgeStyle;orthogonalLoop=1;jettySize=auto;html=1;exitX=0.25;exitY=1;exitDx=0;exitDy=0;startArrow=none;startFill=0;endArrow=classic;endFill=1;strokeWidth=3;fontSize=12;strokeColor=#4D4D4D;" parent="4on1alV3N8Ete7iTEEkb-1" source="4on1alV3N8Ete7iTEEkb-12" target="4on1alV3N8Ete7iTEEkb-20" edge="1"><mxGeometry relative="1" as="geometry"/></mxCell><mxCell id="4on1alV3N8Ete7iTEEkb-11" value="Serial" style="edgeStyle=orthogonalEdgeStyle;rounded=1;orthogonalLoop=1;jettySize=auto;html=1;exitX=0.5;exitY=1;exitDx=0;exitDy=0;entryX=0;entryY=0.5;entryDx=0;entryDy=0;startArrow=none;startFill=0;strokeColor=#4D4D4D;strokeWidth=3;fontSize=12;" parent="4on1alV3N8Ete7iTEEkb-1" source="4on1alV3N8Ete7iTEEkb-12" target="4on1alV3N8Ete7iTEEkb-27" edge="1"><mxGeometry relative="1" as="geometry"/></mxCell><mxCell id="4on1alV3N8Ete7iTEEkb-12" value="Python" style="whiteSpace=wrap;html=1;fontSize=13;" parent="4on1alV3N8Ete7iTEEkb-1" vertex="1"><mxGeometry x="170" y="495" width="120" height="60" as="geometry"/></mxCell><mxCell id="4on1alV3N8Ete7iTEEkb-13" value="USBカメラ" style="shape=mxgraph.signs.tech.video_camera;html=1;pointerEvents=1;fillColor=#000000;strokeColor=none;verticalLabelPosition=bottom;verticalAlign=top;align=center;rotation=0;fontSize=12;" parent="4on1alV3N8Ete7iTEEkb-1" vertex="1"><mxGeometry x="399" y="681" width="98" height="40" as="geometry"/></mxCell><mxCell id="4on1alV3N8Ete7iTEEkb-14" value="Auth" style="edgeStyle=orthogonalEdgeStyle;orthogonalLoop=1;jettySize=auto;html=1;exitX=0.5;exitY=1;exitDx=0;exitDy=0;entryX=1;entryY=0.5;entryDx=0;entryDy=0;startArrow=none;startFill=0;strokeWidth=3;fontSize=12;strokeColor=#4D4D4D;" parent="4on1alV3N8Ete7iTEEkb-1" source="4on1alV3N8Ete7iTEEkb-17" target="4on1alV3N8Ete7iTEEkb-19" edge="1"><mxGeometry relative="1" as="geometry"/></mxCell><mxCell id="4on1alV3N8Ete7iTEEkb-15" value="FireStore" style="edgeStyle=orthogonalEdgeStyle;orthogonalLoop=1;jettySize=auto;html=1;exitX=0.75;exitY=1;exitDx=0;exitDy=0;startArrow=none;startFill=0;endArrow=classic;endFill=1;strokeWidth=3;entryX=1;entryY=0.58;entryDx=0;entryDy=0;entryPerimeter=0;fontSize=12;strokeColor=#4D4D4D;" parent="4on1alV3N8Ete7iTEEkb-1" source="4on1alV3N8Ete7iTEEkb-17" target="4on1alV3N8Ete7iTEEkb-21" edge="1"><mxGeometry relative="1" as="geometry"/></mxCell><mxCell id="4on1alV3N8Ete7iTEEkb-16" value="Hosting&lt;br style=&quot;font-size: 12px;&quot;&gt;(Deply)" style="edgeStyle=orthogonalEdgeStyle;orthogonalLoop=1;jettySize=auto;html=1;entryX=1;entryY=0.25;entryDx=0;entryDy=0;startArrow=classic;startFill=1;endArrow=none;endFill=0;strokeWidth=3;exitX=0.25;exitY=1;exitDx=0;exitDy=0;fontSize=12;strokeColor=#4D4D4D;" parent="4on1alV3N8Ete7iTEEkb-1" source="4on1alV3N8Ete7iTEEkb-17" target="4on1alV3N8Ete7iTEEkb-4" edge="1"><mxGeometry relative="1" as="geometry"/></mxCell><mxCell id="4on1alV3N8Ete7iTEEkb-17" value="" style="strokeColor=#dddddd;shadow=1;strokeWidth=1;absoluteArcSize=1;arcSize=2;fontSize=13;fontStyle=0" parent="4on1alV3N8Ete7iTEEkb-1" vertex="1"><mxGeometry x="810" y="340" width="100" height="60" as="geometry"/></mxCell><mxCell id="4on1alV3N8Ete7iTEEkb-18" value="Firebase" style="dashed=0;connectable=0;html=1;fillColor=#5184F3;strokeColor=none;shape=mxgraph.gcp2.firebase;part=1;labelPosition=right;verticalLabelPosition=middle;align=left;verticalAlign=middle;spacingLeft=5;fontColor=#999999;fontSize=12;" parent="4on1alV3N8Ete7iTEEkb-17" vertex="1"><mxGeometry width="32.4" height="45" relative="1" as="geometry"><mxPoint x="5" y="7" as="offset"/></mxGeometry></mxCell><mxCell id="4on1alV3N8Ete7iTEEkb-19" value="ログイン機能" style="whiteSpace=wrap;html=1;fontSize=13;" parent="4on1alV3N8Ete7iTEEkb-1" vertex="1"><mxGeometry x="620" y="501.5" width="120" height="27.5" as="geometry"/></mxCell><mxCell id="4on1alV3N8Ete7iTEEkb-20" value="LED" style="aspect=fixed;html=1;points=[];align=center;image;fontSize=12;image=img/lib/mscae/Application_Insights.svg;" parent="4on1alV3N8Ete7iTEEkb-1" vertex="1"><mxGeometry x="170" y="659" width="32" height="50" as="geometry"/></mxCell><mxCell id="4on1alV3N8Ete7iTEEkb-21" value="Skyway APIKwy" style="aspect=fixed;html=1;points=[];align=center;image;fontSize=12;image=img/lib/mscae/Key.svg;" parent="4on1alV3N8Ete7iTEEkb-1" vertex="1"><mxGeometry x="664.5" y="542" width="31" height="50" as="geometry"/></mxCell><mxCell id="4on1alV3N8Ete7iTEEkb-22" value="Socket" style="edgeStyle=orthogonalEdgeStyle;rounded=1;orthogonalLoop=1;jettySize=auto;html=1;exitX=0;exitY=0.75;exitDx=0;exitDy=0;entryX=1;entryY=0.75;entryDx=0;entryDy=0;startArrow=none;startFill=0;strokeColor=#4D4D4D;strokeWidth=3;fontSize=12;" parent="4on1alV3N8Ete7iTEEkb-1" source="4on1alV3N8Ete7iTEEkb-23" target="4on1alV3N8Ete7iTEEkb-12" edge="1"><mxGeometry relative="1" as="geometry"/></mxCell><mxCell id="4on1alV3N8Ete7iTEEkb-23" value="WebRTC-gateway" style="label;whiteSpace=wrap;html=1;image=img/clipart/Gear_128x128.png;fontSize=13;" parent="4on1alV3N8Ete7iTEEkb-1" vertex="1"><mxGeometry x="380" y="495" width="140" height="60" as="geometry"/></mxCell><mxCell id="4on1alV3N8Ete7iTEEkb-24" value="ペット" style="verticalLabelPosition=bottom;html=1;verticalAlign=top;align=center;strokeColor=none;fillColor=#00BEF2;shape=mxgraph.azure.github_code;pointerEvents=1;fontSize=12;" parent="4on1alV3N8Ete7iTEEkb-1" vertex="1"><mxGeometry x="525" y="680" width="50" height="50" as="geometry"/></mxCell><mxCell id="4on1alV3N8Ete7iTEEkb-25" value="" style="aspect=fixed;html=1;points=[];align=center;image;fontSize=12;image=img/lib/mscae/Stream_Analytics.svg;" parent="4on1alV3N8Ete7iTEEkb-1" vertex="1"><mxGeometry x="640" y="530" width="50" height="39" as="geometry"/></mxCell><mxCell id="4on1alV3N8Ete7iTEEkb-26" value="" style="shape=image;verticalLabelPosition=bottom;labelBackgroundColor=#ffffff;verticalAlign=top;aspect=fixed;imageAspect=0;image=data:image/png,iVBORw0KGgoAAAANSUhEUgAAAgAAAAIACAMAAADDpiTIAAAAA3NCSVQICAjb4U/gAAAACXBIWXMAABOZAAATmQE42fsGAAAAGXRFWHRTb2Z0d2FyZQB3d3cuaW5rc2NhcGUub3Jnm+48GgAAAwBQTFRF////AAAAAAAAAAAAAAAAAAAAAAAAAAAAAAAAAAAAAAAAAAAAAAAAAAAAAAAAAAAAAAAAAAAAAAAAAAAAAAAAAAAAAAAAAAAAAAAAAAAAAAAAAAAAAAAAAAAAAAAAAAAAAAAAAAAAAAAAAAAAAAAAAAAAAAAAAAAAAAAAAAAAAAAAAAAAAAAAAAAAAAAAAAAAAAAAAAAAAAAAAAAAAAAAAAAAAAAAAAAAAAAAAAAAAAAAAAAAAAAAAAAAAAAAAAAAAAAAAAAAAAAAAAAAAAAAAAAAAAAAAAAAAAAAAAAAAAAAAAAAAAAAAAAAAAAAAAAAAAAAAAAAAAAAAAAAAAAAAAAAAAAAAAAAAAAAAAAAAAAAAAAAAAAAAAAAAAAAAAAAAAAAAAAAAAAAAAAAAAAAAAAAAAAAAAAAAAAAAAAAAAAAAAAAAAAAAAAAAAAAAAAAAAAAAAAAAAAAAAAAAAAAAAAAAAAAAAAAAAAAAAAAAAAAAAAAAAAAAAAAAAAAAAAAAAAAAAAAAAAAAAAAAAAAAAAAAAAAAAAAAAAAAAAAAAAAAAAAAAAAAAAAAAAAAAAAAAAAAAAAAAAAAAAAAAAAAAAAAAAAAAAAAAAAAAAAAAAAAAAAAAAAAAAAAAAAAAAAAAAAAAAAAAAAAAAAAAAAAAAAAAAAAAAAAAAAAAAAAAAAAAAAAAAAAAAAAAAAAAAAAAAAAAAAAAAAAAAAAAAAAAAAAAAAAAAAAAAAAAAAAAAAAAAAAAAAAAAAAAAAAAAAAAAAAAAAAAAAAAAAAAAAAAAAAAAAAAAAAAAAAAAAAAAAAAAAAAAAAAAAAAAAAAAAAAAAAAAAAAAAAAAAAAAAAAAAAAAAAAAAAAAAAAAAAAAAAAAAAAAAAAAAAAAAAAAAAAAAAAAAAAAAAAAAAAAAAAAAAAAAAAAAAAAAAAAAAAAAAAAAAAAAAAAAAAAAAAAAAAAAAAAAAAAAAAAAAAAAAAAAAAAAAAAAAAAAAAAAAAAAAAAAAAAAAAAAAAAAAAAACyO34QAAAP90Uk5TAAECAwQFBgcICQoLDA0ODxAREhMUFRYXGBkaGxwdHh8gISIjJCUmJygpKissLS4vMDEyMzQ1Njc4OTo7PD0+P0BBQkNERUZHSElKS0xNTk9QUVJTVFVWV1hZWltcXV5fYGFiY2RlZmdoaWprbG1ub3BxcnN0dXZ3eHl6e3x9fn+AgYKDhIWGh4iJiouMjY6PkJGSk5SVlpeYmZqbnJ2en6ChoqOkpaanqKmqq6ytrq+wsbKztLW2t7i5uru8vb6/wMHCw8TFxsfIycrLzM3Oz9DR0tPU1dbX2Nna29zd3t/g4eLj5OXm5+jp6uvs7e7v8PHy8/T19vf4+fr7/P3+6wjZNQAAHABJREFUeNrtnXdgFEUbxklCEkILCVUg9KaEDqIIoSqCNAGlNxFRhCBFQemIgFSVJkWwUKSDIFUEpCMd6b0HEkhCCYGU+T5LyF1mZtvtzu7dPr8/c3Mzs/M82dudmfeddOmAkYSM23b9adT5A78tmzNhcM/2jaqH5s+MUbENftOfEpoER0OUCcmCcfJUMm4kSki8e+HgluXfTRzSq0PjGv83hBdGzkNYQDTxzBDhHZuElS2QFYZwU14m+pB07+Kh31fMnTQUhnAvthNj+NcQ8yYP692pac1yBQNhCGvyAhFEUvSlw1tXwhBWYxIxiaToM3Pa5IYAJuMfRczkaR9IYC5tiMmszAYRzOR3sw1AVkAEEymWbLoBSB3IYB5jzdefHMP7gGn4RljAAKQAhDCL5lbQn9SEEGax3hIG6AIhTKJgkiUM8B6UMIkRlBZ/du33+ZSf1uw4fu2BOAO8CCXMwecapUU7h0+zF61Ut4UAQ0T6QwpzeIPS4l4GCbsYZYihUMIkVlNafKPm/qGTIc4EQglzyJtIiVHGlR8UbYaILA4lTGIQJcZeXZ8wFBliS34IYRJeFyk1uhr6yEkb4s7yxpgGNo1XKf3vC40F8AnKBBHMZAllgFkYFBuR8wllgCoYFRvRn9L/CAbFTpyhDNATg2Ijwij947A5z078RBngRwyKjQh6TBmgBkbFRoRT+p/GoNiJ45QB+mNQbMRLdIhOToyKjfiOMsASDIqNyPKQMsBrGBUb0Z3S/xJW5ezEAcoAgzEoNqICne8nH0bFRkynDLAGg2IjMsZSBmiCUbERXSj9b/hgVGzEbsoAozAoNqI0pX9yYYyKjfiKMsBmDIqN8L9LGeBtjIqNaEvH5vhhVGyDV5urlAEmWrGj3tDKCBoeYURnlbJaLwPD995Jvr07PAiC6Uv1HazovB1W62bzmP96FlMPmulI2bXs8MxOFuvnUIdDS7pBNr0ouoCTEjImwFodbezUu9ZQTheeY54K9A/TrNXT7M5vqWcxSa0DQWMf8RM0lLdWX7+2+A+UG5Lx02iJBB0HrNXZEmnvVOsgoGv49rglmaGlu7W6u4rKWwcJXZpOaXdBOkPPQ2sdB1iT6uBFiOgCjY7JpWj6zlL99aI3K16CipoJ2yWfo+tlS/W4A93B6dBRI+XXKcjR9peluhxAZy5FvIJGii1SdBRIb0t1ms5bR6KwUqmFvN8mKErSGB9spV7nZqQSDIeY6gkeF6cwS+dCS/V7FiONrC/kVEumQTGK0/TWtlLHQ+nMtaQZ9FSJX08VpwCds1RA4Aa6g9sgqMp5nw4X1eTpHmClvten+5dcCZKqoslxdYnay1io7z6MviNtlbrf0N1qM/V/a6Hed6O7FxcCUdVQ6IlaAyQ+b5nOZ2Y8uiBeSSVTVB/WYZ2g4FF05yKyQFKVEykPVTuglkW6nj8Oh8npwBeqDfCnRV4Ef6S7dhybwVST7Z5qB7S1RMcrMRYuXoee6hmg2gCXLXFm3za6YxuhpgYCbqp2gBUShDZlvKCEQk0tfKDaANHmLwj60kcX4PQarWN5XrUDJpne6V50px7kgZbaaKfaAE+KmP3oGkWQtlA3vI+pdsBik7s8ge7StQAoqZXG6g/vrWpqh4swZrA7Qkft7FJtAHPjw+njC8lBJC52gZrqbwFm7rupZuEJajdlvfoD3NOb19s9dHdWQ0OXaK/+FtDDtM62ojuTUAIaugA3EYQUd8xaefW/RHfmG4ioHYlEEJJ8YVJ/P2FMTWaHjFqRTAQhSVx+UzqcI8aaixPuiXQiCBnmmdLlqXRHLvpDSU3IJYKQIamcCX0uxQhgQ9paTcgmgpDFjPX3X+hu7IaWWmh0jLiM+Djs2pbPV+AmhO0iOnBUdHZe70PWW5hyRxQlglBCF8Ed78QIV8fJFWpRmAhCCdfFrsFmvE53YRwEVYfSRBDKGCS070PpDkQGQlI1KE8EoYz7uQR2/jlGFEtPaKoCNYkgFCIybfAcuvnT6aGqYlQlglBKQklh/S+bRHB6pQtvUOoSQShmlbAr2EQ3vhW6KkVtIgjl1BB0BQ0Y6UAqQlhl1NxNDGOfmN14Pifopn+AsoqouIEYSSshF/G+ZRak3Y0Si5MN1Z9cFJGZM8ttuuGREFee/LMSiNH0EXAdo+lmb2WGvHJkn/CYGM9d4w/rK8C4jnehrwyZh8QSIUww/FLm040ew0GhMvM+4beJIOILGXwtVZKRFF7tvE+ny0QcRmeQ/oNucj00lqLZCSKS5MqGXk1zRjqQ0hCZT+29RDDbjLwc33N0gzOhMpfKm4h4Ght4QR8xlqFzQ2cOJZcmm6A/OWlcir6gu2ZvRHEjQuYkEnN437BrmkQ3dhXpQJjkmBhPzCLCqHm5oox0IO2hNYMsw+4TEzFqZn4Z3dQBpAOh8f/oDjGVR3kNua7qjKbCIHdafLpcIWYzx4gL89pHN7QSelMzJSeJ+SQZkaq1Ld3O0+IQ3Jm6+4klWKf/pWVgTGh/DcWdqPIbsQr1dL+4gYx0IMHQ3IHnlxPrcFjvp/OcjPXsfhA9lQJzE4mV0Dtd53S6iQs4Gjr1/2NyPLEWVzPoe3tj2LsldE+Z9xnxgFiOgbpe4lq6gV0Q/r/H476RxILE5tDxGusxNh5UhfT/zPt0vUqsiY4pG72P0NUvgvZ/z461PE2sio6zNO+YsPnQLXj1ALEwy/W6zEyM06y+hPrpqv5OrE01nS50OF010oGke2ElsTo6pe3Ly0hh+6Hd5S/4fRKxPvq8qc+lKz5l83Qgub5+QtyBc746XGx5htUb2Vr+rJ8/IG5CuA6Xu4Wudout5336RxG3Icr1Z7VGjO0G5e0rf/pu14k7MdPVzA3pT9GVzrOt/F5vnyHuxu11nzcL0X7JPRhbDvPZVf/6B4mbcmf9qDcLaHreYexvHWFT+V/eRtybyA1fNC+o8qLH0tXczGRL+UNXE48gauPoFsqn8Qsytjl0taP8hX9MIh7E3U1jWirK7b6I/u5RG6YDyT3lCfE87m0e+5bM4fNVk0VsN7U6gaMeEo/l3m9fvl2Uu4F0J/2FX+0mf8And4mnE71lXKtiDBe0pIsmvmCzeZ/uN4hNiPl9fOviTi7wY5xlNsNe8z6tzxF7Ebt1QpsSKS7oS38u9FQK02lwmNiS2G0T25b0ShfMOMr0UxvJ/8ofxM7c376D/uOVDLaRv+waAija2UX+IvOToDbNfpukA8kz7SnEZlHDFvJnG/0IUjNZbgf5Mw68B6XZPC3m+fL7fnATQvOY7PnzPm3PQ2b+qoHHpwN546iHSxg1fY8Lp9X28XD5q+/w/H/iwenSl+0yVZsLznt2OpByv9rhLn73322BmlzQwpPlL7Yw2Qby7+rkmNc5fRlVLtjhwfLnnZHg+epHf8PKHelTprMyFyS/6LHyB42N83z5d3aUSOr+fxdMkXPBAo+d9/ks2vPl31BJfiD+dsFurgsi83qm/L4f3vJ8+ffUUjwePBckN/RI+b3bX3RnYVd/oaTUX03VDgvtguimHql/42Nu/UhfPV36s7KlLnXUuInfJ/SZC+JmF/ZE+cN2ubP8J5v9fQ2tZErd7uXa5I1PaOv+Pep75AxwhfXuLP+Nd/89F8zrkFSp2ME40ptD8Z/ded4n5tNnr3Sv80s9npAdQrPJN9Od533iJzoKu51TKmF2fgjNJnicO8/7JP3oHN5djT1tt6QEhGaTaVCMO//4ryub9oJ+YZTaWAlCs/HrFeHO8u9nzOiUoXYv760NoTnzPh0vubP8Z99iXtVPaeZ9mkFoDk3/cmf5Iz7gpOYs4riD/XInbwjNptYed5b//lB+Wp5pqfM+4TjDh0Olje4s/9NvckpcW57/ohhih2Deh0OJJe4875O8SCaNy2jM+0iSf3aiO//7b64od4HZ7pFEzPvwyD7hsTvLf+hVBdf4yZKSEJpN5iGx7iz/xbZe0NCVeZ/ed9xZ/kg81LuET+fL7iz/w8+zQEOX5v0GufO8X8KMPJDQZYpOcNdI72VYzdOHgN7uuPi3DWey6kfun9xN/mMNoZqu1DztTvJfwXKOFBlyFAp9qV6zFq9XL1/8uawKX5KzrHIb+e/284fITPxDWw5ZcDBN0u644yvHd68rfxCK1zD3WAuIG5sNSrN+xlvPPCU1nX9rSc9yMvfNxm4wIZg4Jx+0pghuOe2kktGLXttbcjmkpOWT/6x+AWpTU7lvrlKRsDF510cSHshvbQfsegVyp6XqNNUHNSTv6smdPw25YF35TzaF3Gkf93tofHmLncg7Fy3EqqHA1/8L9ALPyNTPhXSNiUteZtdawJIOiBkYAMGdCRzs6uHMO9kWKGi95aH4icEQPM2Tny6xO4uZIe2FbltL/qQfCkDwNLyq0+HM8eNY56aHWSoslA70sj35Fuu4oaYzo4Ge1pF/Xy3onYb0fR/oO7eSm25jnkXkP9sSelNP6bt131VHpzf1328F+W/xAr3sTCMjDuicTy2v5Dc/QPj+kEyQm7r9jzNmxe5yubQt1TD5PCDpQC+7EmJYzq6Hb6Zt60Mz5U9eWARq07wYaeCQD0nb2gLz9JcP9LIl9RUfz/7o+qn9W1Yt37j7+GXlOX5/TjPZGmRWflhFgV42pK2SX+Xo9ZPfr+O0ZSJb1Y6jliqa3d2b5lGwqSnyX2iDQC8mH8k+/j3a8Ell3p6fwl0Xyv9DHwg2/UfgDgK9OIyRGbnHixvJDV3FyXLvdodzOH0hu+h3wYcjEejFYZj0yP3xbqCit8iGi6TDwI87n3vfXKj8CPTi877kA/xyFQ/NucdJTiSfdHbAzwL1X4pALy4tJA7pTpyvcp9k8AipN4O9GRzL5hAWOb71RcjMpVY8f+A2aPi/yTpBYr13kVPRt8TIj0AvKcrzt+tf07haFvoHX4zhTiWXCpD/SkcEekkQxM3gkDBec8ozr078m3trx4K5Io2WH4FeMnBj9u7WcaXafAe4b5ROP8c9jJU/bgwCvWQmgHhDd6KoaxUHLOLVfN7xxuJ7zkD5EeglS5UnnLFbm9XlugfxJhdnOZZ62zj9Vz0PgWXIxtul/6Uez03NeHMCjR0fF/40SP6dCPSSh7P9M76DPtWX4awS3XbcjVHHEPkR6KWEBuzBu6lbepwcnON0VjsW2qC//Ne7ItBLARnYwbqndXxy8l3IVshxgqG83vvQohHopYwRzOG7V1zPNvzZ28wuOr6cz9dV/vgJCPRSRnHmFHCizhtmcl9lyvSpQ5FCT/STH4FeytnEHMFwvZup8Ii5K9txbfYr3fT/tQx0VfySxhzB2fo31JL5G/+d47OiTtmD9tWErMo5yNz64WtAS8OZ9+oKDiXG6SH/GQR6ufwKeMmQcAkv5prfUsfHER0Cvd5HoJcqdjIG8YFBv6AZD7NuAY6LDVsR6CWYmnJv57oSwsoYPt2hQBuX5H/yNQK99HgFWG1cc6xdh3EOqvm7kJAGgV4aqMwSpJDCuZ2a7T+etGjb7uVTB3VtoPCcNO99MpuDJmnWf1MFyKmemYyRHKTki1lbL77vNG+0tXdBRbMBjDyzUQ4zts9rlP9gPYipgQyMnbtnFATNNNzAmrQ71FvBrquvGV98S+ahFIFeRsHajfu27Lde5D6rX2ovK0QwY3PACofPO2oI9OrlCym1sZZxA5DbAlJsiWTY12tybY5nrNs4bDsKUJuYDoFe2snF2LjfWeY73eSih+fJ/ITkYYSNdXL4fKW6QK/pCPTSDmMn6GXpu2n6b+Q12ZVLutVpjLgTh497qwr0Kg4VXWAvPaI9Jb8QtFlRBEY5yUoK0i8CCQ5TAWUR6CWKQFqJOMlNwAUV7t1+WF+y3fX0Nxw2H3opnQs62gASukYTelAXSpXPdFTxlHyoVD1tpBeFlytq4jICvVyGsf9C6l/Xa4Xym/PFHBIVBdyng0QcPu6lJNCrLwK9XOcYNa43pDbRjlTzdLZd6mFyLl3e4YCZUAWBXoFQz3Vy0jt0xksUb6nu9XyWRFWMEIB2DncamUDRxNkI9NIFRjBWXX7pzGoz+dTg1+X7UNIvuxDoZdIjwBOJffQj1E7Q7lX1HnDa4VOpqcad1SCcXtCRONv5hZ97qNYATks8afiYvq87zB9O5lZ5oglk0w86I8QIfuFZ6tdozvOfAyvRpR1u7P0R6CWCAPoZsBa3cPFEDYu0PbjVedNbw5pJzhP8Heg1AIFeusKYcuW/XA3Rskq/i984vaA8IPXDMAR6iYDeC3CTX1hT8H4Sf1WI3ok0N/XD0nRN3yPQS3cGU8P8O7dsPm2Bu+9wK+xLP96nflgZgV4imCe5P9uZD7Rt1ONvL36DDuhI/bBWmvdJBHoZwgoV8aAaczfEZeQ+VNJlOe440wJSGcNmyZQ9zmg9Qqoydy6QLuvDmqJEoJdx0LtBuLfaDFr36vMtRe8LS03k9yx65P5gBHoZxwlKAm428MJaDfAet3U6g2jIs89mpAR65YBKBkJn7ODur6uu1QDDuK1foMq+4HxvSl5QGBoZCh0Twt1fqzmJ47fc1o9QZZ+lJPOJQ6CXCOgt4dyc0L21GmAlt/Wd/KXo+gj0EkIcJUEQr2g3rQbgbzGkg0TDUj5afKE1Ar0EcJuSgDvd2lCrASZwWz9JlU255/u9h0AvIdDZIUvzipbXaoB+3NavUWWLQRKx0OlaXuIVzanVAG25rdMRgLkhiVjo41y4qSG9tGZwrM1tnT6fKiMkEcuvlARtuGW1nubAzdkSRO8JgyKC+VkyVYszU7Tpf45bYVWqbAwUEQydqmMxt2w9vV8COtB5CaCIYOhjmo5yy/rGaDIAPzRgFFX2FygimLqUBo/54ZYLtegfyd/Eu1RVUBIwgny0YvwDwlppMcA8fuPHqcJdoYho6GxNHbll/S5q2BNalltdMP0WWB2CiOagmn/Z1uoN8D2/NsaB8UjyKhz6d/0yv7DXftUbAvPza5tKlb4HPYQzkBatEL90TbUGGCPRNL0UtA16CKeqmo38EocLs7ktkcMhr5q9Q8AofOgDWtZJFM9xSY3+T6U28/dSlU0AGMUaekJeKutiWTUR4t2lGqafJx75QQ7x9KF16y9VvrnyALGpUvWUostvhBomUI4W4rjkF4Yr1X+LZDjHF0QqNhgIg5WNqaLkNwYruweszCxVifcV+htVoIYZ/EgrsUD6G03uK9B/lPSeTkaO+ltI/WEKjFXeRJmteaXPy04AtZJp9TB/3bhyHYgiEm96ayaZI/Od4EXSPwOHKspU0IjxpZRVg46P4AChjGG8wMvm4qiyTSKDr/yRIYwU5UdSPhtG4AChsI5omiH/tcYn2fJH95fP4Fuf8b0+KR8uI3CAWBi5fxLLy3/Np/7062m/92BZBwUZfP1O0y0mpOwI/2fjERwgkp6s5F6KArO8Ko/ccyMleVzUsZkNlaXv/ozR4NqUD2v/OysIB4gjC+ss1y6Kv+6Tt0rTt14prDx1e6E4IpGheAKBA0TDmty7k82w5n6RTCqc8vMAB4iDdYwfWWVUdG4PyTwyRVPXhuAAYYxjaTLamLbqMI6pI0efuS3cYTYJDhAF6xg/qahOFyjGTDaWOnG4kcABJjCVpcpjAw5kC2TOHpx9FoyQJZ7AASaQl7m+c1P3Y1l81smcKhCeZk0BDhBEH6YwB/ROzj6J2UzqmaE+aUMP4ABB+BxhSrNY31beYTYSn7r4SB9KBQcIohp7fW+onm1UZ+eYGJ5aYg+BA8xiDnttZ6R+0wENYtmnymRIdSFzbwEcIITsnON6l+mVtqVvEruB11OLsMMO4AAx8A6FPByiR+1+cznVO2w+4QUewQFimMYZ/4iXXa875w5O5ccD5B5E4QBR+B/ijH98R1erLnuZU/VDh5PiJI4kgQOEUIy73Xeca8e0N3vAq9jBWkFRBA4wGX4OkDUuhO6nH5qsJH+IdBYyOMDUxwBC7nXXehOocZxb6TGHN4xQmWMp4+pCHuPxkYj/3ldJ09Pf9/wd5Fcc1hp8dsrGGsABAsiwQyLfzyzV53dk/vgev76okg4lRypINwIHCCDbMQkJEn4oqaquoVInjT10XG2ulUTgAGuQ97Jk1q/F1ZRWVGhMrGT2CIcZwHQ5ritLOQQHCKDEbZnkv8OKyFcS2O0P6eixpHaOxdcoTToFBwiguGwemJ39ykutERXovOSxTA3xTmeBKj+PCA4QwXNH5ZWIWvZBOcZ2EZ+irWYqyCsf63SIQAUVRxHAASII3K5IjOTLm6aEt29ap0qp4hXC3mjdfezKk8qkjHCKPAs8qyr1IBwg4m1wJTGQ804PERm2q/s2HCBkRugr4/Tf4XQykPcK1elH4QARNI8xRv7k0c7Jo75VXwUcIIQiB4zQ/05951aGaakEDhCC3xT99d+e17mN7tqqgQPE0OK2vvI/GZ4mE9ibSQQOsDLZpibqqP/mtCsJYY811wUHCKLCbr3kv0GljqvqynMmHCAIr3ci9ZA/YWKWtDU3euRSjXCAsN+BEdGuyp84vxRVbTdXf13gAGFkHRTlilJP5zCOIhvh+l0FDhBHpv4RWmV6PJWRdjL9d3r8rsABAgnovEXLO9tfA1jnT2T6VZ8HSzhAKPkH/KVOn4hJFZgV5dyv16sFHCD6rXDiCcWvfT+8zkkAX+a8fnMLcIBw8rSZfUF+u0iPUtz3yt7xes4uwgFmULDT+F/OJDAX+679Nq2n1IaxPBt0Xl6AA8zCt2TTj7+c/tOqLftPnT20fe2iWRMHt66QSeZLTSKJ3sTVgxbuQsZviQHAAe5CxVPGbDKBA9yCXDMSCYEDbDuR9Nl9YhxwgMXx6nCVGAocYGlqHSRGAwdYFr92+4gA4ABrkmfYLSIGOMCC//z15j8hwoADrEVI91UPiFDgAMvgW+vL40Q8cIAF8A57Z/SqWGIOcIAFGEhMBA6AAyAAHADgAAAHADgAwAEADgBwAIADABwA4ABgIwe8CgHgAAAHADgA2NUBj+EAOADAAQAOAHAAgAMAHADgAAAHADgAwAEADgBwAIADABwA4AAABwA4AMABAA4AcACAA4BnOuA1CAAHADgAwAEADgBwAIADABwA4AAABwA4AMABAA4AcACAAwAcAOAAAAcAOADAAQAOAHAAgAMAHADgAOBhDqgPAeAAAAcAOADAAQAOAHAAgAMAHADgAAAHADgAwAEADgBwAIADABwA4AAABwA4AMABAA4AcACAAwAcAHSjdMS/JJvpgIQIbeSEfi5TnrgxeaAfDABgAAADABgAwAAABgAwAIABAAwAYAAAAwAYAMAAQLEBVlm7t3thABgABoABYAAYAAaAAWAAGAD6wQAABgAwAIABAAwAYAAAAwAYAMAAAAYAMACAAQAMAGAAAAMAGADAAAAGADAAgAEADABgABgABoABYAAYAAaAAWAAGAAGgAFgABgABoABYAAYAAaAAWAAGAAGgAFgABgABoABYAAYAAaAAWAAGAAGgAFgABgABoABYAAYAAaAAWAAzzJAfISleQoDGGwAnBkEA8AAMAAMAAPAADAADAADwAAwAAwAA8AAMAAMAAPAADAADAADwAAwAAwAA8AAkvwPqIUJhvJsUK8AAAAASUVORK5CYII=;" parent="4on1alV3N8Ete7iTEEkb-1" vertex="1"><mxGeometry x="330" y="680" width="122" height="122" as="geometry"/></mxCell><mxCell id="4on1alV3N8Ete7iTEEkb-27" value="C" style="whiteSpace=wrap;html=1;fontSize=13;" parent="4on1alV3N8Ete7iTEEkb-1" vertex="1"><mxGeometry x="300" y="759.65" width="60" height="60" as="geometry"/></mxCell><mxCell id="4on1alV3N8Ete7iTEEkb-28" value="" style="shape=image;verticalLabelPosition=bottom;verticalAlign=top;imageAspect=0;aspect=fixed;image=data:image/png,iVBORw0KGgoAAAANSUhEUgAAAOEAAADhCAMAAAAJbSJIAAABIFBMVEXQEBL///8AAAD27DbREBLGDxHOAA/38Df49Tj/9jj48zf57zf88jf59zj/9zmtra3svy7s7Oz39/fm5ubV1dXGxsbOzs68vLzZEROHh4dNTU1mZmafn5/v7+/c3NyYmJjmpSn15jX04TTYzy9DQ0Ozs7NcXFwkJCQ3Nzd0dHTdcyDjlSbZWBzbah/fgCLuxy8TExMyMjLIwCzTKxXWSBnUOBfy2jPqsyygmiM2NAyupybw0jHl3DLDuytxcXGQiiAbGxvorivjkiamDQ4gHwd/ehxhXRVKRxB0bxnZXRxaBwiDCguzDg+alCJaVxQVFAUqAwQrKQlHRBAxLwuiDA5vCQqNCww+BQUeAwPnEhR4CQqJgx5MBgY9Og0YGAV4cxrTH9+dAAASGklEQVR4nO1c+V/byA6HhPrIQcIVEs4cEAoJCeUKhdAUWmhpC+xu9+bt7v//Xzx7Do9saezh7Xuf93HX+qUllsf6jjSSRh5rKvet09T/W4D/Of0zEH558c2SQPhi5lslhXDq26QMYfopQ5h+yhCmnzKE6acMYfopQ5h+yhCmnzKE6acMYfopQ5h+yhCmnzKE6acMYfopQ5h+yhCmnzKE6acMYfopQ5h+yhCmnzKE6acMYfopQ5h+yhCmnzKE6acMYfopQ5h+yhCmnzKEf4usMBnzPm94neAz9bp/6T9BGAysF2iGXTi52xtc95o+9a4H/SmaWfD29wc+7e33T5JwiuvH/f5dv398RLLP1H/8/fMXD+OzEXpj3fWqp3bZI6fcOq327qLDe38f7TWHrbJT8Mjm5P2v3Bpen+h5GXfB+8cbdng1ONGAFHe0nbLD7nDKFHv9Xe67n35iHzs9D6Fl7Vdtx5M6L8gT3bFHfTC6ZR03T8uABZDHfDpQvJ5QfZrXG7bcGu0jE/Tu2L9q+wLYEXanfQWkmHmXe/dbvV7/2cP1HISWNWg7hOS2MzyyApbTMolOULGQ73FJPF00W04Mr+20mkcQo2fLzTwlgGBvX0uM9dy7Lx6oT/XPv9SfgdC6axc0w9t232IiXBd1LIoKrX3LV3VVKyyQ+mpKKsa/oxx/R8Hmszfz7tf6l9xvHs567oUxQssaqfGLJUbFohr82JN6v1VQjyv6TK7rMp6S67PLS+WRdQLxSVZG4XFtWyjGOgrNiJAAidG687jrn3/yEH7+Pfei/ss7U4TWSbsgx55tHZ7fTyaTs/PDvCvktlveFDjq+W6pc3n/8eH1Y47T+4en8/GsBFloB9bpieqOFev7P25v7i8VZz7vXEz5Kr8ugDt8CSY3tz79NTk/9NhLSuvWzMzPnzyEP3sqrH9nitDq2/yRRbfz9H1O0ev7MR/cvjoNpqDUmXzIEfT41HHVfHPdjs9vKdaPl3kJ0s4fW0cXDrjjI2Y/b8mRCxeW9SXnW+mPuZmp3JQZQqtfEPgOf0CjP3ErEVopuuPJI+IJ6MMhwFjKn5MzIaSW02Hbg7xQYKmoveNWjmy3p+rffX7xqV7/9O7TJzNPYx3zB5RaD9TY34+V0O6YVAmUpFWS+CYJrA/CPvIFozs+dFwB0XqR+90LFlOffjWLh9YUn8LSoWbog2D95W8ShPbp0Je7WLw3YL0vBXPnWf9ZEvsTt2z7wnrxr9x3v+Z+MvwO2LpgAN1z7cgPs1yBuimI0GXJY40xZUAf8tI+Sp2vyex/tBh7oWnVX7z7MmWYtVm9QgJATy3+wLN4jre6b3YbHr1ZCf3cmX0ywufR91xmanCKHvmKce4s/zvuKaPM2zphbqx0Ccbpri0v1ZYq3eCHW8+a3JCF7jSWF6YhLVS2lNjh9bzTqNTmJN9crbL7FkLkFhpe3iuN5cW5eZ99fqFWWYUQmdK94CXEN0HIbLQ4VvJsB1LPvZQ/enYH1dLYmCZocSuHaauyjjkXNhXDg+sJDV346hLirymQP7ClW+hZpgitAVOh+1qOsBka+kD8OnaBFW0iCSQBwTntLuhYKwHPWan4Wt3RmCfZF4J1wL2TbY6QL/PA8UXmb1v83OkEIqwQOtFA7M7FsM4HMgMNrtL4fFqTPGwpSiUmIrSahZCNRg1kTvx+GbjGRozQHr0CALG1hUma3qPZHcuC6ZaFxZYZQuuI+1G5ztfQsOJCkMlVEqTeDqTd0qtDUrDMOe3EWce00iJTorNvGSGsMjcj49wKHjUsQ24bc4RpIbC3RHzKQji9TOQXdv3kr0R7ZILQOimzWPSHeAaew/kwQL2PkbQuOHcNAE5P7z4LYDB9JWWmSQiHNgyFhPwbIYAGehFCvDECOL2oxj5INupg5XZ8My0fW4kIrWMe7N/z+94SQ1YgwAMDGWo6c6dJDa4NK3h0HjAKAwOEXIUyXVsmhoTpRG7RQIZN06ngFLjexAXOiTM/sIXYTEQoVfgYsw4gwIQ4AW4w0gcjmRh2n8fv7wTsajLCsAopDS1ChCYSMKtOiigEQpNF6JPIKFp+BLhIQmgdM0daEs8gl04DADSxo7lnLcLpICLiOKwhEW59V+NthJMQVkMqJHNpAPCVwfN5fKNStfVKo7FGKIqPTa7bhaUavmGJ38B2c60EhHLX9GfMQqgBhEkp2LScYCpm7mrsXERPwsdt7JAPFcvmku0SkxCOklUIAnKyCpdfaper9JjIAy3pxhZxGAWwDXOEM1M8I/0aswqhkcapcH4O7FKJ5Rqkn+hKQze23LVF7RQiTLBSsamQ6QwZ6kC4J6Z5PnewswN364x2MGNgCXglHGhuCTxcFGFNIUzyNHxfOCuqk1sUQJj6EysF5pRxjCriIPVyeXFwWQ9uiV4BnsY+jUVoDZgK5b6WtEGQkxLObiFHEaEPtWNEy3CLRAFUiLQOo8UwHmHbBvtC2o0AJRHxKpTPxahwWV2MmhwXF6dKakOD/LKI+ONg+6RDaN05cGtPBnO4ccJXaRUSyfuOujpHDoHDpyqF1KKX3vDf3cS8VER7WUSnAKq6CJmR0qsQL6kl7VUBMHbXjS5x1/DVR1i4jkEoon1RZwuR5xCZdGRnrJVoOlRghEFXOmrsAlQhBKPnv9+y3dNeHMJmKNqTaS9YP8Q0o7KhZqoWIwyiijBXCcIMHlu5cLT8hd4nPkInbgcsQoWI9nTBAYQKwtN2G5uV5eXl7bVQ/RpXQZA/2lnd3e0eqL/xAgCTghItYfMs4Ds8cyERWnuhUEHXr4FU5AwEtBGgwEWO9VwS4QWgVjiOUcJ0OkHSpkPIN4biVSsd7dU7i+Sdr/RJODGijRkQse2Oe7AotrEt/qkeofAzeTEOVbwIBYPkHTufDiLag1F2uv5bqtVIiRQ7X5AqolghixhuQjXR6jEVyhcRpMwgGBhU+fjywGlBECo2gXqXoXvFTg5MAbomsizmaHiw0CBswXcxpA3C9WNQk+BPxn5GmHrUxapwgFcuSBWxBxT65Y6mr0Uo8hnpZ0gbhNULgxIKEwvHFDFPeHkGusUrBDwZG6nwaS3w8olEyLe+4n0nuTGE8dykCsZiJ079uAeisnq5CPAV8GTdxT/YMhzGILRhAYpMSaELNClANWhds1BJVr/ndEYKkjxtpOTLUP92zdpz4NaXlBgANKrz0brWrU6fXmmM9I16MDZuYcGsDMUzGhohS7pd8aadzGdAzm1kpEu0rhtaFUozxb+rB+u3KfyEiv4dMDfSlnaipsMqNKnuvqJ1xe7H7oIRWwfYB4BkGOe4IkbfgndrFEJupEHSTT099DYm4aWlT0zlODOq6VeBQIhnD6Sx2McL0zpnafeeHmHISMl9E8iLTerANc1IzEiJPEchxCDUg4lcUpRDYKwgERahkVLBUMVj3RSESBgWTt9jZ8iHjxNrYKR4WQsjfYCxgkBo7ReAkZLPB2UH7TIKaF06P3RFuHaNK/azHezlgJHiWzaBkfJ3hzTCqyQjBfNIPqhSqUnNb2wHOxAc2YRr12xM/Es4VqjnEj4+B4y0EDhOjLANtxWUkcLjIvoiysFOSNWE05DX9XkvKkGBcI99vKgFs6Mm/NUhiZAfTZDhnnIDsHJEKTl8PSC0DMExi+gJODEKXoYqJyUkExbMs+49PUJWCC79pZ/e8P4NL0O6xoatOeSv0IN8LDgXUDdgk5CpcujIF4WQVxEfdaYQep+Wo/wEDRD79tBMoAf5S0FXZiInTAbDm1C4pxC24MYJjzMdPieKjSUyA1olhYIqehBbhsg+VKZB+BkxHqvQOHdahPxsgowVxOmYSPEPG1IjRxKKXqF6KtIWw4LsQ8UK7AHF8mel4HwbfAIVRciXoXhbQaSc3VwuVrSwahQhMwzpGmFZoRSrFgCR7YvKxxkz0l4MwhFchnimoi8j0OaVfltBZK/Q0aB5os8zKO+L/YOsbbBQ55zEIDy1wfsYPFPR+i2aA75UtlZ3G43dN6CihEYC2TuuZLHsBK21QO2ECoVtcT8zBAARQhtEQ7wM51fXtmuLi7Xtxo5G8G53DR6QWBQ5G97LAR1qtlUo1AbJlN62OuDYJYlQOJqJxngg1XZoLUdpQ6MmZc5YXo4eOSfp5YhUUtgW/yiiBQFGEe5BR5NwSm1Lv/WBxJwmsdURdrVCZN7cW+Gs9EBjWsF0sfKFqJNqELIvK1xxFDGhADNveLipQiOcbrwlT90HSxRfWiDzgOlgtliNDeYzBEK2sZBVtiTRVw2Pb5FWGs/vE7UvWydPvkvzZSlpoRmLsApcaaL4a4YIX9EnU3XUiEFI01ZIhZEDCRGEF0WVsyWe4jVFuGXkkiQFVXvyhRBF0i0fUiqMImThUBxbT3xn1jA8CPuSdJg6Cl6omh7RlPnfh1liFSKEbRAOEyswK4aqIV2/jlTF1+g87rTKQjrwO5L/DkLDtbJuZPKCQKpDv5hFJG30xsWx8G9a6ZLhPG8bOWZOoXzc6I4gc+AZ6V4SQuZphC9N+rKgayjFS/NVFd6bGVm23Mtcsoz0AjeaIKKFYTzcMBRcbNxMnFJk82ly6FjWVD7Ook0FjZAdo3HFFzLxWZsYO/HNk5TXuHSsvqFKjhey4vBefhuLANJ5qfhUMvatkiyzJIVEVfVI+hhDVQeCj/GS8sagKsY+5bLbBMAowqNy4pHLqDjx3y/Bsk7ct4bT62oz2Qm+QopP9tQbfbYIgzeGcQi5M8273yfJBHfCMR5pI3xCmDx5xAm8kTwsqQ9W4yKGuuWeBQoHhUISYQ++tdDFu3BdP7ejkXwelU51O85lUN3plIAV6SNuTZXUJzyZGZIAEcIj/gVC8OX7LtqAz1fC5Xqf3hBJ2SJVGn5FGP76GqxedZjBga+mu9T6hUduJjzhbmkaRtEVYTCHue62En9uaTNcLw1oZRta9NxyA0r9BL7kf7sZ0vjGWmhA0TDAgwi6X7zaDIGcWw7N3RlvdmATgYJGyD+pjPRneLWy0l1BX5p/HIf/7jY21zY3G6tRxsmsG24QsbW7uVaprDXeRE545W5Uzxb49bY/Md3dxqZ/KCw6+CFvhSGOBxkgFB8hhD+up2nilsbvE7k8R+fJ4Jo0RPhTSMsR5nETFUw/iNYgRLamRSiOsCfK9OiLU8wnNTKR7UkMOmZMgl4+opFKchORM9GvpawHSCE85q1S4ltz3AtxZuOaZeRyry9nhd2V8rhtDqQb2dOlMLSajpAg3kRu8qL3T+FOD5A8bbJf5naiba/y/iwfNFUp5fVNWB5gt5282yGb2zC6l/jy5aY1I9sxFUvnf2pvmcjeNX4LIj1A+tTXoCylP8eL4eukUwJNY1jbH0r0h7OxxBd0H+qQhvfXoerylGfqsJpSgtKlpsdS0FercDEVB1Bz+nK/IG3LbV1ObrlbO/j6cHN22FI9qmzZ2Kvo5i+fAMofPp4dFt2AzxlWRZOnYsnt3N8Cvbz+eNZRjLYzEg3XrIHs61UslQ7vb1VnqscPN+ehW3oJfRY1p6CDxl68F5c3YrHkhhqSefh6oHmZfzk/7nQ643HeZwT9xfKDSKMun/HQo864CDnt8oVy+dbxaUiCYosN3goP7t2iC4MJCKcsb7XHNn+zy1W/I+NVmKtYBK3TOD5vR2P5udIQNpMrcgoPeLoPtWFZA7sAGdAdfpO9veRGmfrvno5GBW2HPad4xVs8xnGxtoDShiyrP9Q3zLMLzvAuKqxl9Vox0+xNiQG+2K/zrKNeuxwV3+/BWKzuBY0mGZdDgPT48qO7cMfIqzzRJtEf8fT6iBLWsvaqdsEuEoOXW1fHZo1OY7909oTqDfPlQkCO0672+uE+mjOMyy4HfTxFI88oH28M6re6DBh91nJ7NDjSdiv1e102LwplJzR4ftg7Nm7kmtQXwx+ovze49miwJ3qnklwne9fNUXU4rI6ueoM7TTNW9nN/4DNeXAyrHmd/JqnpLBt8f9C7Go2qo1HTG/zoGX1qzXrQGvW/NW+o+4zWu/Qtz+sHnHVKTj9lCNNPGcL0U4Yw/ZQhTD9lCNNPGcL0U4Yw/ZQhTD9lCNNPGcL0U4Yw/ZQhTD9lCNNPGcL0U4Yw/ZQhTD9lCNNPGcL0U4Yw/ZQhTD9lCNNPGcL0U4Yw/ZQhTD9lCNNPGcL0U4Yw/ZQhTD/9oxB+qxQg/HZJIPy2KUOYfvo3LmzyM+NeWZYAAAAASUVORK5CYII=" parent="4on1alV3N8Ete7iTEEkb-1" vertex="1"><mxGeometry x="419.9978260869565" y="759.9978260869565" width="59.652173913043484" height="59.652173913043484" as="geometry"/></mxCell><mxCell id="4on1alV3N8Ete7iTEEkb-30" value="" style="rounded=0;whiteSpace=wrap;html=1;fillColor=none;strokeColor=#FF3333;strokeWidth=4;" parent="4on1alV3N8Ete7iTEEkb-1" vertex="1"><mxGeometry x="210" y="670" width="310" height="170" as="geometry"/></mxCell></root></mxGraphModel></diagram></mxfile>